<svg width="50" height="50" viewBox="0 0 50 50" fill="none" xmlns="http://www.w3.org/2000/svg">
<path d="M30.8335 0H0.833455C0.612442 0 0.40048 0.0877923 0.2442 0.244064C0.0879194 0.400335 0.00012207 0.612285 0.00012207 0.833286V10.8327C0.00012207 11.0537 0.0879194 11.2657 0.2442 11.4219C0.40048 11.5782 0.612442 11.666 0.833455 11.666H30.8335C31.0545 11.666 31.2664 11.5782 31.4227 11.4219C31.579 11.2657 31.6668 11.0537 31.6668 10.8327V0.833286C31.6668 0.612285 31.579 0.400335 31.4227 0.244064C31.2664 0.0877923 31.0545 0 30.8335 0ZM30.0001 9.99943H1.66679V1.66657H3.33345V4.99971H5.00012V1.66657H6.66679V4.99971H8.33345V1.66657H10.0001V4.99971H11.6668V1.66657H13.3335V4.99971H15.0001V1.66657H16.6668V4.99971H18.3335V1.66657H20.0001V4.99971H21.6668V1.66657H23.3335V4.99971H25.0001V1.66657H26.6668V4.99971H28.3335V1.66657H30.0001V9.99943Z" fill="white"/>
<path d="M24.1667 26.6649H15.8333C15.6123 26.6649 15.4004 26.5771 15.2441 26.4208C15.0878 26.2646 15 26.0526 15 25.8316V19.1653C15 18.9443 15.0878 18.7324 15.2441 18.5761C15.4004 18.4198 15.6123 18.332 15.8333 18.332H24.1667C24.3877 18.332 24.5996 18.4198 24.7559 18.5761C24.9122 18.7324 25 18.9443 25 19.1653V25.8316C25 26.0526 24.9122 26.2646 24.7559 26.4208C24.5996 26.5771 24.3877 26.6649 24.1667 26.6649ZM16.6667 24.9983H23.3333V19.9986H16.6667V24.9983Z" fill="white"/>
<path d="M24.1667 37.4979H15.8333C15.6123 37.4979 15.4004 37.4101 15.2441 37.2538C15.0878 37.0976 15 36.8856 15 36.6646V29.9983C15 29.7773 15.0878 29.5654 15.2441 29.4091C15.4004 29.2528 15.6123 29.165 15.8333 29.165H24.1667C24.3877 29.165 24.5996 29.2528 24.7559 29.4091C24.9122 29.5654 25 29.7773 25 29.9983V36.6646C25 36.8856 24.9122 37.0976 24.7559 37.2538C24.5996 37.4101 24.3877 37.4979 24.1667 37.4979ZM16.6667 35.8313H23.3333V30.8316H16.6667V35.8313Z" fill="white"/>
<path d="M24.1667 41.6646H15.8333C15.6123 41.6646 15.4004 41.5768 15.2441 41.4206C15.0878 41.2643 15 41.0523 15 40.8313C15 40.6103 15.0878 40.3984 15.2441 40.2421C15.4004 40.0858 15.6123 39.998 15.8333 39.998H24.1667C24.3877 39.998 24.5996 40.0858 24.7559 40.2421C24.9122 40.3984 25 40.6103 25 40.8313C25 41.0523 24.9122 41.2643 24.7559 41.4206C24.5996 41.5768 24.3877 41.6646 24.1667 41.6646Z" fill="white"/>
<path d="M24.1667 44.9976H15.8333C15.6123 44.9976 15.4004 44.9098 15.2441 44.7536C15.0878 44.5973 15 44.3853 15 44.1643C15 43.9433 15.0878 43.7314 15.2441 43.5751C15.4004 43.4188 15.6123 43.3311 15.8333 43.3311H24.1667C24.3877 43.3311 24.5996 43.4188 24.7559 43.5751C24.9122 43.7314 25 43.9433 25 44.1643C25 44.3853 24.9122 44.5973 24.7559 44.7536C24.5996 44.9098 24.3877 44.9976 24.1667 44.9976Z" fill="white"/>
<path d="M4.16668 13.3325C3.06202 13.3338 2.00298 13.7732 1.22186 14.5543C0.440747 15.3354 0.0013349 16.3943 1.16822e-05 17.4989V43.3308C-0.000764895 43.477 0.0371888 43.6207 0.110012 43.7474L3.44334 49.5804C3.51626 49.7079 3.62156 49.8138 3.74858 49.8875C3.8756 49.9612 4.01984 50 4.16668 50C4.31352 50 4.45775 49.9612 4.58477 49.8875C4.7118 49.8138 4.81709 49.7079 4.89001 49.5804L8.22334 43.7474C8.29617 43.6207 8.33412 43.477 8.33334 43.3308V17.4989C8.33202 16.3943 7.89261 15.3354 7.11149 14.5543C6.33038 13.7732 5.27134 13.3338 4.16668 13.3325ZM6.66668 21.6654H1.66668V19.9988H6.66668V21.6654ZM1.66668 23.3319H3.33334V39.6527L1.66668 41.3193V23.3319ZM4.16668 41.1759L6.46084 43.47L5.88251 44.4816C4.77287 44.0857 3.56049 44.0857 2.45084 44.4816L1.87251 43.47L4.16668 41.1759ZM5.00001 39.6527V23.3319H6.66668V41.3193L5.00001 39.6527ZM1.66668 17.4989C1.66668 16.8359 1.93007 16.2001 2.39891 15.7313C2.86775 15.2625 3.50364 14.9991 4.16668 14.9991C4.82972 14.9991 5.4656 15.2625 5.93444 15.7313C6.40329 16.2001 6.66668 16.8359 6.66668 17.4989V18.3322H1.66668V17.4989ZM4.16668 47.4839L3.29168 45.9532C3.86526 45.8023 4.46809 45.8023 5.04168 45.9532L4.16668 47.4839Z" fill="white"/>
<path d="M37.5 16.6657C37.9945 16.6657 38.4778 16.5191 38.8889 16.2444C39.3001 15.9697 39.6205 15.5793 39.8097 15.1225C39.9989 14.6657 40.0484 14.1631 39.952 13.6782C39.8555 13.1932 39.6174 12.7478 39.2678 12.3982C38.9181 12.0486 38.4727 11.8105 37.9877 11.7141C37.5028 11.6176 37.0001 11.6671 36.5433 11.8563C36.0865 12.0455 35.696 12.3659 35.4213 12.777C35.1466 13.1881 35 13.6714 35 14.1659C35 14.8289 35.2634 15.4647 35.7322 15.9335C36.2011 16.4024 36.837 16.6657 37.5 16.6657ZM37.5 13.3326C37.6648 13.3326 37.8259 13.3815 37.963 13.473C38.1 13.5646 38.2068 13.6947 38.2699 13.847C38.333 13.9993 38.3495 14.1668 38.3173 14.3284C38.2852 14.4901 38.2058 14.6386 38.0893 14.7551C37.9727 14.8716 37.8242 14.951 37.6626 14.9831C37.5009 15.0153 37.3334 14.9988 37.1811 14.9357C37.0288 14.8727 36.8987 14.7659 36.8071 14.6288C36.7155 14.4918 36.6667 14.3307 36.6667 14.1659C36.6667 13.9449 36.7545 13.7329 36.9107 13.5767C37.067 13.4204 37.279 13.3326 37.5 13.3326Z" fill="white"/>
<path d="M49.1667 13.3326H43.2667C43.1281 12.3827 42.7576 11.4817 42.1878 10.7092C41.618 9.93671 40.8666 9.31657 40 8.90366V2.49986C39.9967 1.83787 39.7323 1.20392 39.2641 0.735821C38.796 0.267717 38.162 0.00328537 37.5 0C36.837 0 36.2011 0.263377 35.7322 0.732191C35.2634 1.20101 35 1.83685 35 2.49986V8.90366C34.1334 9.31657 33.382 9.93671 32.8122 10.7092C32.2424 11.4817 31.8719 12.3827 31.7333 13.3326H10.8333C10.6123 13.3326 10.4004 13.4204 10.2441 13.5766C10.0878 13.7329 10 13.9449 10 14.1659V49.1638C10 49.3848 10.0878 49.5968 10.2441 49.7531C10.4004 49.9093 10.6123 49.9971 10.8333 49.9971H49.1667C49.3877 49.9971 49.5996 49.9093 49.7559 49.7531C49.9122 49.5968 50 49.3848 50 49.1638V14.1659C50 13.9449 49.9122 13.7329 49.7559 13.5766C49.5996 13.4204 49.3877 13.3326 49.1667 13.3326ZM45.5925 39.3061H45.5875C45.375 39.3624 45.1488 39.3324 44.9583 39.2228C44.8641 39.168 44.7817 39.095 44.716 39.008C44.6503 38.921 44.6027 38.8218 44.5758 38.7161L39.4592 19.653C39.998 19.46 40.5054 19.1885 40.965 18.8473L46.1775 38.2853C46.2329 38.4982 46.2026 38.7242 46.0933 38.9151C45.9839 39.1059 45.8041 39.2462 45.5925 39.3061ZM37.5 25.8319C37.279 25.8319 37.067 25.9196 36.9107 26.0759C36.7545 26.2322 36.6667 26.4441 36.6667 26.6651V27.4484C36.182 27.4194 35.6994 27.3638 35.2208 27.2818L37.1775 19.9839C37.285 19.9897 37.3908 20.0005 37.5 20.0005C37.6092 20.0005 37.715 19.9897 37.8225 19.9839L39.7792 27.2818C39.3006 27.3638 38.818 27.4194 38.3333 27.4484V26.6651C38.3333 26.4441 38.2455 26.2322 38.0893 26.0759C37.933 25.9196 37.721 25.8319 37.5 25.8319ZM36.6667 2.49986C36.6667 2.27886 36.7545 2.06691 36.9107 1.91063C37.067 1.75436 37.279 1.66657 37.5 1.66657C37.6111 1.66621 37.7211 1.68866 37.8231 1.73252C37.9252 1.77638 38.0171 1.84072 38.0933 1.92156C38.1703 1.99677 38.2312 2.08678 38.2725 2.18617C38.3137 2.28555 38.3344 2.39226 38.3333 2.49986V8.39952C37.7813 8.31063 37.2187 8.31063 36.6667 8.39952V2.49986ZM37.5 9.99943C38.3241 9.99943 39.1297 10.2438 39.8149 10.7016C40.5001 11.1594 41.0341 11.8101 41.3495 12.5714C41.6649 13.3327 41.7474 14.1705 41.5866 14.9787C41.4258 15.7869 41.029 16.5293 40.4463 17.112C39.8636 17.6946 39.1211 18.0915 38.3129 18.2522C37.5046 18.413 36.6668 18.3305 35.9055 18.0151C35.1441 17.6998 34.4934 17.1658 34.0355 16.4806C33.5777 15.7954 33.3333 14.9899 33.3333 14.1659C33.3347 13.0613 33.7741 12.0023 34.5552 11.2212C35.3363 10.4401 36.3953 10.0007 37.5 9.99943ZM34.035 18.8473C34.4946 19.1885 35.002 19.46 35.5408 19.653L30.4275 38.7203C30.3703 38.9312 30.2326 39.1112 30.044 39.2215C29.8554 39.3319 29.631 39.3637 29.4192 39.3102H29.4117C29.2 39.2513 29.0198 39.1118 28.9097 38.9216C28.7996 38.7315 28.7683 38.5057 28.8225 38.2928L34.035 18.8473ZM48.3333 48.3306H11.6667V14.9991H31.7333C31.858 15.8787 32.1833 16.7178 32.6842 17.4515L27.2108 37.8603C27.0816 38.3576 27.1088 38.8826 27.2886 39.3639C27.4684 39.8452 27.7922 40.2594 28.2158 40.5502L27.5283 43.115C27.5 43.2207 27.4927 43.331 27.507 43.4395C27.5212 43.548 27.5567 43.6527 27.6115 43.7475C27.6662 43.8422 27.739 43.9253 27.8258 43.992C27.9127 44.0586 28.0118 44.1075 28.1175 44.1358C28.1879 44.1545 28.2605 44.164 28.3333 44.1641C28.5168 44.1642 28.6951 44.1037 28.8406 43.992C28.9862 43.8804 29.0908 43.7238 29.1383 43.5467L29.8267 40.9776C30.342 40.9457 30.8338 40.7509 31.2313 40.4215C31.6288 40.092 31.9114 39.6448 32.0383 39.1444L34.7817 28.915C35.4046 29.0302 36.0342 29.1056 36.6667 29.1408V29.9983C36.6667 30.2193 36.7545 30.4312 36.9107 30.5875C37.067 30.7438 37.279 30.8316 37.5 30.8316C37.721 30.8316 37.933 30.7438 38.0893 30.5875C38.2455 30.4312 38.3333 30.2193 38.3333 29.9983V29.1408C38.9658 29.1062 39.5954 29.0313 40.2183 28.9167L42.9608 39.1419C43.0874 39.6427 43.37 40.0902 43.7677 40.4198C44.1655 40.7494 44.6577 40.9439 45.1733 40.9752L45.8617 43.545C45.9089 43.7225 46.0134 43.8794 46.1589 43.9914C46.3045 44.1033 46.483 44.1641 46.6667 44.1641C46.7395 44.164 46.8121 44.1545 46.8825 44.1358C46.9882 44.1075 47.0873 44.0586 47.1741 43.992C47.261 43.9253 47.3338 43.8422 47.3885 43.7475C47.4432 43.6527 47.4787 43.548 47.493 43.4395C47.5073 43.331 47.5 43.2207 47.4717 43.115L46.7842 40.551C47.207 40.2587 47.5297 39.8434 47.7086 39.3615C47.8875 38.8796 47.9138 38.3544 47.7842 37.857L42.3158 17.4515C42.8166 16.7178 43.142 15.8787 43.2667 14.9991H48.3333V48.3306Z" fill="white"/>
</svg>
