<svg width="72" height="70" viewBox="0 0 72 70" fill="none" xmlns="http://www.w3.org/2000/svg">
<path d="M70.7673 12.5204C70.112 6.55075 65.2626 1.83502 59.1218 1.19843C43.7223 -0.399475 28.2777 -0.399475 12.8787 1.19843C6.73792 1.83556 1.888 6.55075 1.23267 12.5204C-0.410889 27.4917 -0.410889 42.5078 1.23267 57.479C1.888 63.4492 6.73792 68.1644 12.8782 68.8016C28.2772 70.3995 43.7223 70.3995 59.1218 68.8016C65.2626 68.1644 70.112 63.4492 70.7673 57.479C72.4109 42.5078 72.4109 27.4922 70.7673 12.5204Z" fill="url(#paint0_radial)"/>
<path d="M66.9043 15.0896C66.3221 9.80213 62.0114 5.62558 56.5528 5.06106C42.8646 3.64631 29.1356 3.64631 15.4473 5.06106C9.9893 5.62558 5.67802 9.80213 5.09529 15.0896C3.6349 28.3501 3.6349 41.65 5.09529 54.91C5.67802 60.198 9.9893 64.3746 15.4473 64.9385C29.1356 66.3538 42.8646 66.3538 56.5523 64.9385C62.0108 64.3746 66.3221 60.198 66.9043 54.91C68.3652 41.65 68.3652 28.3501 66.9043 15.0896Z" fill="url(#paint1_linear)"/>
<path d="M1 36C1.04955 36.4848 1.10075 36.9697 1.15415 37.4545C1.81096 43.4361 6.67179 48.1608 12.8264 48.7992C28.2601 50.4003 43.7399 50.4003 59.1736 48.7992C65.3282 48.1608 70.1885 43.4361 70.8453 37.4545C70.8987 36.9697 70.9499 36.4848 71 36H1Z" fill="url(#paint2_linear)"/>
<path d="M70.7813 57.4118C71.6552 49.3239 72.0584 41.2232 71.9932 33.1236L55.7117 17.0371C53.6776 14.7428 50.7066 13.3108 47.2156 13.1868C40.0362 12.9312 32.834 12.9441 25.6535 13.1878C19.6898 13.3908 15.5195 17.3512 14.45 23.1721C14.2614 24.1998 14.1484 25.2409 14 26.2761V43.3409C14.0821 43.8939 14.2027 44.4443 14.2402 45.0006C14.4793 48.5411 15.952 51.5737 18.31 53.6253L34.8784 69.9948C43.0094 70.0512 51.1409 69.6517 59.2604 68.7953C65.3355 68.1547 70.133 63.4141 70.7813 57.4118Z" fill="url(#paint3_linear)"/>
<path d="M70.7507 57.4009C70.0868 63.4076 65.1682 68.1536 58.9431 68.7942C50.6226 69.6508 42.2872 70.0512 33.955 69.9948L17 53.6347C18.9655 55.2948 21.5275 56.3057 24.5006 56.4137C31.8581 56.6802 39.2411 56.6733 46.5986 56.4174C53.2532 56.1853 58.0686 51.4329 58.2764 45.0118C58.4981 38.1941 58.4981 31.3587 58.2764 24.541C58.1817 21.5788 57.104 18.9723 55.3173 17L71.9932 33.0908C72.059 41.1967 71.6457 49.3058 70.7507 57.4009Z" fill="url(#paint4_linear)"/>
<path d="M44.1524 27.5991C42.031 25.3876 38.9872 24 35.6039 24C29.1956 24 24 28.9745 24 35.1102C24 38.3494 25.4492 41.2638 27.7591 43.2949L54.6067 69C56.0277 68.8815 57.4488 68.7497 58.8688 68.6047C65.0477 67.9733 69.9277 63.301 70.5871 57.385C70.7386 56.0254 70.8762 54.6649 71 53.3043L44.1524 27.5991Z" fill="url(#paint5_linear)"/>
<path d="M14 26.3908C14.1458 25.3466 14.2569 24.2965 14.4422 23.26C15.4927 17.3888 19.5917 13.3942 25.4527 13.1895C32.5094 12.9436 39.5874 12.9306 46.6431 13.1884C53.022 13.4212 57.6418 18.2109 57.841 24.6816C58.053 31.5525 58.053 38.4402 57.841 45.3111C57.6418 51.7818 53.0236 56.5709 46.6436 56.8043C39.588 57.0626 32.5083 57.0691 25.4532 56.8005C19.0732 56.5573 14.6628 51.7569 14.2361 45.2764C14.1992 44.7159 14.0806 44.1602 14 43.6024C14 37.865 14 32.1276 14 26.3908ZM36.0059 52.9694C39.2349 52.9694 42.4672 53.0675 45.6919 52.9467C50.748 52.7566 53.8579 49.6967 53.9759 44.5745C54.1222 38.1921 54.1222 31.8011 53.9759 25.4181C53.8579 20.297 50.7458 17.1657 45.6919 17.0568C39.2771 16.9192 32.8554 16.9203 26.4407 17.0568C21.4252 17.1635 18.3062 20.2315 18.17 25.2963C17.997 31.7594 17.997 38.2338 18.17 44.6969C18.3062 49.7612 21.4252 52.7582 26.4412 52.9467C29.6254 53.0669 32.8175 52.9694 36.0059 52.9694Z" fill="url(#paint6_linear)"/>
<path d="M13.3719 26.5105C13.5219 25.4809 13.6362 24.4453 13.8268 23.4232C14.9073 17.6335 19.1233 13.6944 25.1515 13.4925C32.4096 13.25 39.6897 13.2372 46.9467 13.4914C53.5078 13.7211 58.2593 18.4442 58.4642 24.8251C58.6823 31.6006 58.6823 38.3926 58.4642 45.1681C58.2593 51.549 53.5094 56.2716 46.9473 56.5018C39.6902 56.7565 32.4085 56.7629 25.152 56.498C18.5899 56.2583 14.0537 51.5244 13.6147 45.134C13.5768 44.5812 13.4549 44.0333 13.3719 43.4832C13.3719 37.8255 13.3719 32.1677 13.3719 26.5105ZM36.006 52.7202C39.3272 52.7202 42.6516 52.8168 45.9684 52.6977C51.1688 52.5103 54.3674 49.4929 54.4888 44.4418C54.6393 38.148 54.6393 31.8457 54.4888 25.5514C54.3674 20.5014 51.1666 17.4135 45.9684 17.3061C39.3705 17.1705 32.7656 17.1716 26.1677 17.3061C21.0091 17.4114 17.8011 20.4368 17.661 25.4312C17.483 31.8046 17.483 38.1892 17.661 44.5625C17.8011 49.5564 21.0091 52.5119 26.1683 52.6977C29.4433 52.8163 32.7266 52.7202 36.006 52.7202Z" fill="white"/>
<path d="M36 23.7886C29.6312 23.7886 24.4676 28.8081 24.4676 34.9999C24.4676 41.1922 29.6312 46.2118 36 46.2118C42.3693 46.2118 47.5323 41.1922 47.5323 34.9999C47.5323 28.8081 42.3693 23.7886 36 23.7886ZM36 42.3517C31.8235 42.3517 28.4381 39.0603 28.4381 34.9999C28.4381 30.9395 31.8235 27.6482 36 27.6482C40.1764 27.6482 43.5619 30.9395 43.5619 34.9999C43.5619 39.0603 40.1764 42.3517 36 42.3517Z" fill="white"/>
<path d="M50.949 23.276C50.949 24.7489 49.7207 25.943 48.2057 25.943C46.6907 25.943 45.4619 24.7489 45.4619 23.276C45.4619 21.8025 46.6907 20.6084 48.2057 20.6084C49.7207 20.6084 50.949 21.8025 50.949 23.276Z" fill="white"/>
<defs>
<radialGradient id="paint0_radial" cx="0" cy="0" r="1" gradientUnits="userSpaceOnUse" gradientTransform="translate(14.7596 61.1745) scale(79.4033 77.1977)">
<stop stop-color="#FAE100"/>
<stop offset="0.0544" stop-color="#FADC04"/>
<stop offset="0.1167" stop-color="#FBCE0E"/>
<stop offset="0.1829" stop-color="#FCB720"/>
<stop offset="0.2514" stop-color="#FE9838"/>
<stop offset="0.3054" stop-color="#FF7950"/>
<stop offset="0.4922" stop-color="#FF1C74"/>
<stop offset="1" stop-color="#6C1CD1"/>
</radialGradient>
<linearGradient id="paint1_linear" x1="27.6006" y1="30.423" x2="-92.69" y2="-39.4231" gradientUnits="userSpaceOnUse">
<stop stop-color="#A1B5D8" stop-opacity="0"/>
<stop offset="0.3094" stop-color="#90A2BD" stop-opacity="0.309804"/>
<stop offset="0.7554" stop-color="#7C8B9C" stop-opacity="0.756863"/>
<stop offset="1" stop-color="#748290"/>
</linearGradient>
<linearGradient id="paint2_linear" x1="35.9998" y1="41.7758" x2="35.9998" y2="52.7089" gradientUnits="userSpaceOnUse">
<stop stop-color="#FAE100" stop-opacity="0"/>
<stop offset="0.3068" stop-color="#FCA800" stop-opacity="0.305882"/>
<stop offset="0.6275" stop-color="#FE7300" stop-opacity="0.627451"/>
<stop offset="0.8685" stop-color="#FF5200" stop-opacity="0.866667"/>
<stop offset="1" stop-color="#FF4500"/>
</linearGradient>
<linearGradient id="paint3_linear" x1="32.3337" y1="30.7084" x2="14.9178" y2="13.0815" gradientUnits="userSpaceOnUse">
<stop stop-color="#833AB4" stop-opacity="0"/>
<stop offset="1" stop-color="#833AB4"/>
</linearGradient>
<linearGradient id="paint4_linear" x1="49.0304" y1="63.9862" x2="40.6097" y2="22.8449" gradientUnits="userSpaceOnUse">
<stop stop-color="#833AB4" stop-opacity="0"/>
<stop offset="1" stop-color="#833AB4"/>
</linearGradient>
<linearGradient id="paint5_linear" x1="52.4373" y1="51.2272" x2="18.0554" y2="15.3172" gradientUnits="userSpaceOnUse">
<stop stop-color="#833AB4" stop-opacity="0"/>
<stop offset="1" stop-color="#833AB4"/>
</linearGradient>
<linearGradient id="paint6_linear" x1="49.8991" y1="21.0041" x2="21.1869" y2="49.3188" gradientUnits="userSpaceOnUse">
<stop stop-color="#833AB4"/>
<stop offset="0.0922" stop-color="#9C3495"/>
<stop offset="0.2927" stop-color="#DC2546"/>
<stop offset="0.392" stop-color="#FD1D1D"/>
<stop offset="0.5589" stop-color="#FC6831"/>
<stop offset="0.6887" stop-color="#FC9B40"/>
<stop offset="0.7521" stop-color="#FCAF45"/>
<stop offset="0.7806" stop-color="#FDB750"/>
<stop offset="0.8656" stop-color="#FECB6A"/>
<stop offset="0.9415" stop-color="#FFD87A"/>
<stop offset="1" stop-color="#FFDC80"/>
</linearGradient>
</defs>
</svg>
