<?xml version="1.0" encoding="UTF-8"?> <svg xmlns="http://www.w3.org/2000/svg" xmlns:xlink="http://www.w3.org/1999/xlink" id="Capa_1" x="0px" y="0px" viewBox="0 0 512 512" style="enable-background:new 0 0 512 512;" xml:space="preserve" width="512px" height="512px" class=""><g><g> <g> <rect x="418.789" y="351.796" width="14.999" height="14.999" data-original="#000000" class="active-path" data-old_color="#000000" fill="#FFFFFF"></rect> </g> </g><g> <g> <rect x="443.787" y="351.796" width="14.999" height="14.999" data-original="#000000" class="active-path" data-old_color="#000000" fill="#FFFFFF"></rect> </g> </g><g> <g> <rect x="347.876" y="351.796" width="60.92" height="14.999" data-original="#000000" class="active-path" data-old_color="#000000" fill="#FFFFFF"></rect> </g> </g><g> <g> <path d="M254.526,328.48v132.19h229.42V328.48H254.526z M468.947,445.672H269.525V343.478h199.423V445.672z" data-original="#000000" class="active-path" data-old_color="#000000" fill="#FFFFFF"></path> </g> </g><g> <g> <path d="M253.995,176.575v14.999h242.981v34.503h-23.614V202.48h-25.637v14.999h10.638v8.598H422.41v-8.598h11.638V202.48h-26.636 v23.597h-76.35V202.48h-25.636v14.999h10.638v8.598h-35.954v-8.598h11.638V202.48H265.11v23.597h-11.115v14.999h25.185 c-4.289,4.708-6.64,10.767-6.64,17.179c0,6.331,2.286,12.311,6.46,16.989h-25.005v14.999h242.981v178.239H253.995v14.999h242.981 v13.472H253.995v14.999h257.98V176.575H253.995z M298.086,268.804c-5.809-0.01-10.539-4.74-10.549-10.549 c0.01-5.799,4.74-10.539,10.549-10.549c5.809,0.01,10.539,4.75,10.549,10.549C308.625,264.064,303.895,268.794,298.086,268.804z M421.302,275.244h-104.13c4.174-4.679,6.46-10.658,6.46-16.989c0.001-6.413-2.352-12.472-6.64-17.179h104.491 c-4.296,4.708-6.639,10.767-6.649,17.179C414.844,264.586,417.121,270.566,421.302,275.244z M440.382,268.804 c-5.799-0.01-10.529-4.74-10.549-10.549c0.02-5.799,4.75-10.539,10.549-10.549c5.809,0.01,10.539,4.75,10.559,10.549 C450.921,264.064,446.191,268.794,440.382,268.804z M496.976,275.244h-37.507c4.174-4.679,6.46-10.658,6.47-16.989 c-0.01-6.412-2.363-12.472-6.651-17.179h37.688V275.244z" data-original="#000000" class="active-path" data-old_color="#000000" fill="#FFFFFF"></path> </g> </g><g> <g> <rect x="323.828" y="301.071" width="90.821" height="14.999" data-original="#000000" class="active-path" data-old_color="#000000" fill="#FFFFFF"></rect> </g> </g><g> <g> <rect x="386.572" y="249.976" width="14.999" height="14.999" data-original="#000000" class="active-path" data-old_color="#000000" fill="#FFFFFF"></rect> </g> </g><g> <g> <rect x="336.577" y="249.976" width="14.999" height="14.999" data-original="#000000" class="active-path" data-old_color="#000000" fill="#FFFFFF"></rect> </g> </g><g> <g> <rect x="361.575" y="249.976" width="14.999" height="14.999" data-original="#000000" class="active-path" data-old_color="#000000" fill="#FFFFFF"></rect> </g> </g><g> <g> <rect x="414.669" y="103.36" width="14.999" height="14.999" data-original="#000000" class="active-path" data-old_color="#000000" fill="#FFFFFF"></rect> </g> </g><g> <g> <rect x="389.672" y="103.36" width="14.999" height="14.999" data-original="#000000" class="active-path" data-old_color="#000000" fill="#FFFFFF"></rect> </g> </g><g> <g> <rect x="439.667" y="103.36" width="14.999" height="14.999" data-original="#000000" class="active-path" data-old_color="#000000" fill="#FFFFFF"></rect> </g> </g><g> <g> <path d="M30.43,90.436v124.857h44.156V90.436H30.43z M59.587,200.294H45.429v-94.86h14.159V200.294z" data-original="#000000" class="active-path" data-old_color="#000000" fill="#FFFFFF"></path> </g> </g><g> <g> <path d="M30.43,259.289v209.206h44.156V259.289H30.43z M59.587,453.497H45.429V274.287h14.159V453.497z" data-original="#000000" class="active-path" data-old_color="#000000" fill="#FFFFFF"></path> </g> </g><g> <g> <path d="M106.045,103.36v81.732l48.395,0.05V103.41L106.045,103.36z M139.441,170.143h-18.398v-18.436l18.398,0.027V170.143z M139.441,136.757h-18.398v-18.398h18.398V136.757z" data-original="#000000" class="active-path" data-old_color="#000000" fill="#FFFFFF"></path> </g> </g><g> <g> <rect x="197.041" y="94.251" width="14.999" height="14.999" data-original="#000000" class="active-path" data-old_color="#000000" fill="#FFFFFF"></rect> </g> </g><g> <g> <rect x="197.041" y="119.248" width="14.999" height="14.999" data-original="#000000" class="active-path" data-old_color="#000000" fill="#FFFFFF"></rect> </g> </g><g> <g> <rect x="197.041" y="144.246" width="14.999" height="67.223" data-original="#000000" class="active-path" data-old_color="#000000" fill="#FFFFFF"></rect> </g> </g><g> <g> <rect x="197.881" y="259.285" width="14.999" height="14.999" data-original="#000000" class="active-path" data-old_color="#000000" fill="#FFFFFF"></rect> </g> </g><g> <g> <rect x="100.97" y="259.285" width="61.917" height="14.999" data-original="#000000" class="active-path" data-old_color="#000000" fill="#FFFFFF"></rect> </g> </g><g> <g> <rect x="172.883" y="259.285" width="14.999" height="14.999" data-original="#000000" class="active-path" data-old_color="#000000" fill="#FFFFFF"></rect> </g> </g><g> <g> <rect x="371.824" y="23.906" width="14.999" height="47.495" data-original="#000000" class="active-path" data-old_color="#000000" fill="#FFFFFF"></rect> </g> </g><g> <g> <path d="M479.852,80.307H261.076l-19.58,19.58V60.939H0.025V497.11h30.277v14.84L45.301,512v-14.89h149.855v14.84l14.999,0.05 v-14.89h31.342V142.406h270.479V112.43L479.852,80.307z M226.498,445.672H113.544v14.999h112.954v21.442H15.024V244.79h211.474 V445.672z M226.498,229.792H15.024V75.938h211.474V229.792z M496.977,127.408h-0.001H243.952v-8.765l23.337-23.337h206.352 l23.337,23.337V127.408z" data-original="#000000" class="active-path" data-old_color="#000000" fill="#FFFFFF"></path> </g> </g><g> <g> <polygon points="332.136,0 332.136,67.808 347.134,67.808 347.134,14.999 393.795,14.999 393.795,67.808 408.793,67.808 408.793,0 " data-original="#000000" class="active-path" data-old_color="#000000" fill="#FFFFFF"></polygon> </g> </g></g> </svg> 