<svg width="25" height="25" viewBox="0 0 25 25" fill="none" xmlns="http://www.w3.org/2000/svg">
<path d="M24.7446 14.4729C25.5583 8.20028 24.3537 4.24023 22.181 2.4491L22.1821 2.44806C18.6753 -0.610703 6.83206 -1.06343 2.6366 2.58544C0.752499 4.37032 0.0888601 6.98989 0.0161325 10.2329C-0.056595 13.4769 -0.142959 19.5538 6.04002 21.2023H6.0457L6.04002 23.7199C6.04002 23.7199 5.99797 24.7399 6.70934 24.9449C7.52298 25.1863 7.89116 24.7128 10.4218 21.9444C14.6537 22.2806 17.9037 21.5104 18.273 21.398C19.1276 21.1357 23.9628 20.5498 24.7446 14.4729ZM10.8389 20.173C10.8389 20.173 8.16048 23.2318 7.32752 24.0259C7.05479 24.284 6.75593 24.2601 6.76047 23.748C6.76047 23.4119 6.78093 19.5684 6.78093 19.5684C1.53886 18.1925 1.84796 13.0179 1.90478 10.3109C1.96159 7.60289 2.5025 5.38505 4.09796 3.89158C7.77866 0.730822 18.1616 1.43749 20.8071 3.71465C24.0412 6.34046 22.8901 13.7589 22.8969 14.0118C22.2321 19.0844 18.3139 19.406 17.5935 19.6256C17.2855 19.7193 14.4275 20.3926 10.8389 20.173Z" fill="white"/>
<path d="M12.321 4.48584C11.8835 4.48584 11.8835 5.11029 12.321 5.11549C15.7153 5.13943 18.5108 7.30627 18.5415 11.2809C18.5415 11.7003 19.2119 11.6951 19.2062 11.2757H19.2051C19.1687 6.993 16.1165 4.50978 12.321 4.48584Z" fill="white"/>
<path d="M16.7859 10.6221C16.7756 11.0363 17.445 11.0561 17.4507 10.6366C17.5063 8.27519 15.9166 6.33003 12.9291 6.125C12.4916 6.09586 12.4461 6.72552 12.8825 6.75466C15.4734 6.93471 16.8381 8.55411 16.7859 10.6221Z" fill="white"/>
<path d="M16.0697 13.3083C15.5084 13.0107 14.9368 13.1959 14.7004 13.4884L14.2061 14.0743C13.955 14.372 13.4856 14.3324 13.4856 14.3324C10.0606 13.503 9.14471 10.2204 9.14471 10.2204C9.14471 10.2204 9.10267 9.77603 9.41631 9.5377L10.0345 9.06936C10.3436 8.84456 10.539 8.30337 10.2243 7.77155C9.38335 6.38006 8.81858 5.90028 8.53108 5.53185C8.2288 5.18528 7.77425 5.10723 7.30152 5.3414H7.2913C6.30834 5.86802 5.2322 6.8536 5.57652 7.86834C6.16402 8.93823 7.24357 12.3488 10.6845 14.9257C12.3015 16.1444 14.8606 17.3933 15.947 17.6816L15.9572 17.6961C17.0277 18.0229 18.0686 16.9988 18.6243 16.0715V16.0642C18.8709 15.6157 18.7891 15.191 18.4288 14.9132C17.7902 14.3428 16.8266 13.7132 16.0697 13.3083Z" fill="white"/>
<path d="M13.3966 8.44795C14.4887 8.50623 15.0182 9.02869 15.075 10.1017C15.0955 10.5211 15.7603 10.492 15.7398 10.0726C15.6671 8.67171 14.8694 7.89115 13.433 7.81829C12.9955 7.79436 12.9546 8.42401 13.3966 8.44795Z" fill="white"/>
</svg>
