<svg width="50" height="50" viewBox="0 0 50 50" fill="none" xmlns="http://www.w3.org/2000/svg">
<g clip-path="url(#clip0)">
<path d="M26.325 25.8749C26.4268 25.3662 26.8734 25 27.3922 25V25C27.4639 25 27.5354 24.9929 27.6057 24.9789L30 24.5L33.4624 24.1153C34.1375 24.0403 34.7726 23.7577 35.2803 23.3064L37.1765 21.6209C38.0397 20.8536 39.4063 21.2189 39.7715 22.3146V22.3146C39.9169 22.7506 40.2417 23.1036 40.664 23.2846L42.4021 24.0295C43.1265 24.3399 43.9064 24.5 44.6945 24.5H46.2293C46.4095 24.5 46.5893 24.5149 46.767 24.5445V24.5445C48.3441 24.8073 49.5 26.1718 49.5 27.7707V34.0869C49.5 35.3523 49.2761 36.6078 48.8386 37.7952L47.2117 42.2112C46.4423 44.2994 44.802 45.9493 42.7183 46.7307L42.5936 46.7774C42.1989 46.9254 41.8199 47.1126 41.4624 47.336L41.0575 47.5891C39.1963 48.7523 36.8262 48.7175 35 47.5V47.5L32 45.5L31.2256 44.9579C28.5484 43.0839 26.843 40.1165 26.5717 36.8598L26 30V27.7748C26 27.592 26.018 27.4098 26.0539 27.2306L26.325 25.8749Z" fill="#B68E6F"/>
<path d="M46.891 24.1348C43.5282 24.1348 40.4068 22.4646 38.5412 19.6658L37.8719 18.6618L37.2025 19.6658C35.3369 22.4646 32.2155 24.1348 28.8527 24.1348H25.8045V37.0356C25.8045 40.1538 27.2083 43.0846 29.5542 45.0516H12.9326V41.8336H23.391V27.3527H6.49667V33.7887H1.66971V1.60898H37.0674V16.0898H38.6764V0H0.06073V34.9262L11.7951 46.6606H32.0272L37.8719 50L44.6698 46.1159C47.92 44.2591 49.9392 40.7789 49.9392 37.0356V24.1348H46.891ZM11.3236 43.914L2.80727 35.3977H11.3236V43.914ZM8.10565 33.7887V28.9617H21.782V40.2246H12.9326V33.7887H8.10565ZM48.3303 37.0356C48.3303 40.2037 46.6215 43.1473 43.8718 44.7193L37.8719 48.1481L31.872 44.7193C29.1222 43.1473 27.4135 40.2037 27.4135 37.0356V25.7438H28.8527C32.3764 25.7438 35.6716 24.1629 37.8719 21.4655C40.0721 24.1629 43.3673 25.7438 46.891 25.7438H48.3303V37.0356Z" fill="white"/>
<path d="M45.1123 32.1797V37.0356C45.1123 39.0517 44.0247 40.9253 42.2749 41.9253L43.073 43.3219C45.3231 42.0363 46.7213 39.6277 46.7213 37.0356V32.1797H45.1123Z" fill="white"/>
<path d="M4.8877 3.21777V8.04473H33.8494V3.21777H4.8877ZM32.2404 6.43574H6.49668V4.82676H32.2404V6.43574Z" fill="white"/>
<path d="M44.5435 27.5884L33.8494 38.2825L31.2002 35.6333L30.0627 36.7709L33.8494 40.5576L45.6811 28.7259L44.5435 27.5884Z" fill="white"/>
<path d="M20.1731 30.5708H9.71466V32.1798H20.1731V30.5708Z" fill="white"/>
<path d="M20.173 33.7886H14.5416V35.3975H20.173V33.7886Z" fill="white"/>
<path d="M20.173 37.0066H14.5416V38.6156H20.173V37.0066Z" fill="white"/>
<path d="M30.6315 11.2629H4.8877V12.8719H30.6315V11.2629Z" fill="white"/>
<path d="M30.6315 14.4807H4.8877V16.0897H30.6315V14.4807Z" fill="white"/>
<path d="M30.6315 17.699H4.8877V19.308H30.6315V17.699Z" fill="white"/>
<path d="M20.173 20.9167H4.8877V22.5257H20.173V20.9167Z" fill="white"/>
<path d="M20.173 24.1348H4.8877V25.7438H20.173V24.1348Z" fill="white"/>
<path d="M33.8494 11.2629H32.2404V12.8719H33.8494V11.2629Z" fill="white"/>
<path d="M33.8494 14.4807H32.2404V16.0897H33.8494V14.4807Z" fill="white"/>
<path d="M33.8494 17.699H32.2404V19.308H33.8494V17.699Z" fill="white"/>
<path d="M23.391 20.9167H21.782V22.5257H23.391V20.9167Z" fill="white"/>
<path d="M23.391 24.1348H21.782V25.7438H23.391V24.1348Z" fill="white"/>
</g>
<defs>
<clipPath id="clip0">
<rect width="50" height="50" fill="white"/>
</clipPath>
</defs>
</svg>
