<svg width="44" height="44" viewBox="0 0 44 44" fill="none" xmlns="http://www.w3.org/2000/svg">
<path d="M22.0055 0H21.9945C9.86425 0 0 9.867 0 22C0 26.8125 1.551 31.273 4.18825 34.8947L1.4465 43.0677L9.90275 40.3645C13.3815 42.669 17.5312 44 22.0055 44C34.1357 44 44 34.1302 44 22C44 9.86975 34.1357 0 22.0055 0Z" fill="#4CAF50"/>
<path d="M34.5353 30.783C34.0056 32.2659 31.9035 33.4958 30.2268 33.855C29.0797 34.0971 27.5813 34.2903 22.5374 32.2169C16.0857 29.5667 11.9309 23.0662 11.607 22.6445C11.2969 22.2227 9 19.2024 9 16.0787C9 12.955 10.5999 11.434 11.2448 10.7809C11.7744 10.2449 12.6499 10 13.4896 10C13.7613 10 14.0055 10.0136 14.2251 10.0245C14.87 10.0517 15.1938 10.0898 15.6191 11.0993C16.1488 12.3645 17.4386 15.4882 17.5923 15.8093C17.7487 16.1304 17.9051 16.5658 17.6856 16.9875C17.4797 17.4229 17.2986 17.6161 16.9748 17.9861C16.651 18.3562 16.3436 18.6392 16.0198 19.0364C15.7234 19.382 15.3886 19.752 15.7618 20.3915C16.1351 21.0173 17.4249 23.1043 19.3239 24.7804C21.7745 26.9436 23.7613 27.6348 24.4721 27.9286C25.0017 28.1463 25.6329 28.0946 26.0199 27.6865C26.5111 27.1613 27.1176 26.2906 27.735 25.4335C28.1741 24.8185 28.7284 24.7424 29.3102 24.96C29.903 25.1641 33.0397 26.7015 33.6846 27.0198C34.3295 27.3409 34.7548 27.4933 34.9112 27.7627C35.0649 28.032 35.0649 29.2973 34.5353 30.783Z" fill="#FAFAFA"/>
</svg>
