<svg width="300" height="111" fill="none" xmlns="http://www.w3.org/2000/svg"><path fill-rule="evenodd" clip-rule="evenodd" d="M0 0l25 7.4c25 7.4 75 22.2 125 22.2S250 14.8 275 7.4L300 0v101c0 5.523-4.477 10-10 10H10c-5.523 0-10-4.477-10-10V0z" fill="#B68E6F"/><path fill-rule="evenodd" clip-rule="evenodd" d="M0 0l25 7.4c25 7.4 75 22.2 125 22.2S250 14.8 275 7.4L300 0v101c0 5.523-4.477 10-10 10H10c-5.523 0-10-4.477-10-10V0z" fill="url(#paint0_linear)"/><defs><linearGradient id="paint0_linear" x1="0" y1="69.515" x2="300.064" y2="80.016" gradientUnits="userSpaceOnUse"><stop stop-color="#B68E6F"/><stop offset="1" stop-color="#FFD194" stop-opacity="0"/></linearGradient></defs></svg>