<svg width="300" height="96" fill="none" xmlns="http://www.w3.org/2000/svg"><path fill-rule="evenodd" clip-rule="evenodd" d="M0 0l25 6.4c25 6.4 75 19.2 125 19.2S250 12.8 275 6.4L300 0v86c0 5.523-4.477 10-10 10H10C4.477 96 0 91.523 0 86V0z" fill="#B68E6F"/><path fill-rule="evenodd" clip-rule="evenodd" d="M0 0l25 6.4c25 6.4 75 19.2 125 19.2S250 12.8 275 6.4L300 0v86c0 5.523-4.477 10-10 10H10C4.477 96 0 91.523 0 86V0z" fill="url(#paint0_linear)"/><defs><linearGradient id="paint0_linear" x1="0" y1="60.121" x2="299.941" y2="72.258" gradientUnits="userSpaceOnUse"><stop stop-color="#B68E6F"/><stop offset="1" stop-color="#FFD194" stop-opacity="0"/></linearGradient></defs></svg>