<svg width="51" height="50" viewBox="0 0 51 50" fill="none" xmlns="http://www.w3.org/2000/svg">
<rect x="17" y="17" width="16" height="16" rx="8" fill="#B68E6F"/>
<path fill-rule="evenodd" clip-rule="evenodd" d="M48.3334 2.83177e-06H40.9834C40.5774 -0.000967777 40.2126 0.247652 40.065 0.62585C39.9174 1.00405 40.0174 1.43407 40.3167 1.70834L42.1334 3.375L32.5 12.9917C31.8538 13.6417 31.8538 14.6916 32.5 15.3417L34.6584 17.5C35.3084 18.1462 36.3583 18.1462 37.0084 17.5L46.6667 7.86667L48.3334 9.71667C48.6188 9.98214 49.0333 10.0558 49.3927 9.90481C49.7521 9.75386 49.9898 9.40635 50 9.01667V1.66667C50 0.746195 49.2539 2.83177e-06 48.3334 2.83177e-06ZM48.3334 7.25L47.3584 6.18334C47.1739 5.99861 46.9236 5.89481 46.6625 5.89481C46.4015 5.89481 46.1512 5.99861 45.9667 6.18334L35.8334 16.325L33.675 14.1667L43.8084 4.03334C43.9977 3.85003 44.1032 3.59685 44.1 3.33334C44.1 2.82454 43.8021 2.56934 43.09 1.95947L43.09 1.95943L43.0896 1.95909C42.9854 1.86985 42.8723 1.77301 42.75 1.66667H48.3334V7.25ZM43.2829 18.4287C43.749 18.2459 44.2792 18.363 44.625 18.7249L49.4667 23.7916C49.8167 24.1267 50.0105 24.5931 50.0009 25.0776C49.9914 25.5621 49.7796 26.0205 49.4167 26.3416L44.6167 31.2749C44.27 31.6309 43.7436 31.7441 43.2812 31.5621C42.8189 31.3801 42.5109 30.9384 42.5 30.4416V28.3333H34.0834C33.759 28.3372 33.4663 28.529 33.3334 28.8249C32.4184 30.8188 30.8188 32.4184 28.825 33.3333C28.5291 33.4663 28.3373 33.7589 28.3334 34.0833V42.4999H30.4334C30.9339 42.5075 31.3802 42.8168 31.563 43.2829C31.7457 43.7489 31.6287 44.2791 31.2667 44.6249L26.15 49.4833C25.8142 49.8149 25.3576 49.9953 24.8858 49.9827C24.414 49.9701 23.9677 49.7657 23.65 49.4166L18.725 44.6166C18.369 44.2699 18.2558 43.7435 18.4378 43.2812C18.6199 42.8188 19.0616 42.5108 19.5584 42.4999H21.6667V34.0833C21.6628 33.7589 21.4709 33.4663 21.175 33.3333C19.1812 32.4184 17.5816 30.8188 16.6667 28.8249C16.5337 28.529 16.2411 28.3372 15.9167 28.3333H7.50002V30.4083C7.49247 30.9088 7.18313 31.3551 6.7171 31.5379C6.25107 31.7206 5.7208 31.6036 5.37502 31.2416L0.516687 26.1249C0.182795 25.7903 0.000890783 25.3332 0.013493 24.8606C0.0260952 24.388 0.232099 23.9413 0.583354 23.6249L5.38335 18.7249C5.73 18.3689 6.25644 18.2557 6.71879 18.4377C7.18115 18.6198 7.48911 19.0615 7.50002 19.5583V21.6666H15.9167C16.2411 21.6627 16.5337 21.4708 16.6667 21.1749C17.5816 19.1811 19.1812 17.5815 21.175 16.6666C21.4709 16.5336 21.6628 16.241 21.6667 15.9166V7.49993H19.5584C19.0578 7.49238 18.6115 7.18304 18.4288 6.71701C18.246 6.25098 18.3631 5.72072 18.725 5.37493L23.875 0.5166C24.2108 0.18493 24.6674 0.00455407 25.1392 0.0171362C25.6111 0.0297183 26.0574 0.23417 26.375 0.583266L31.275 5.38327C31.631 5.72992 31.7442 6.25635 31.5622 6.71871C31.3802 7.18106 30.9385 7.48902 30.4417 7.49993H28.3334V15.9166C28.3373 16.241 28.5291 16.5336 28.825 16.6666C30.8188 17.5815 32.4184 19.1811 33.3334 21.1749C33.4663 21.4708 33.759 21.6627 34.0834 21.6666H42.5V19.5583C42.5076 19.0577 42.8169 18.6114 43.2829 18.4287ZM44.1667 27.8916V29.3749L48.3334 25.0833C48.3093 25.059 48.2896 25.0308 48.275 24.9999L44.1667 20.6666V22.1083C44.1667 22.7848 43.6182 23.3333 42.9417 23.3333H34.0834C33.1061 23.3294 32.2206 22.7565 31.8167 21.8666C31.0684 20.2382 29.7618 18.9316 28.1334 18.1833C27.2434 17.7793 26.6705 16.8939 26.6667 15.9166V7.05827C26.6667 6.38172 27.2151 5.83327 27.8917 5.83327H29.3834L25.0834 1.6666C25.0591 1.69065 25.0309 1.71037 25 1.72493L20.6667 5.83327H22.1084C22.7849 5.83327 23.3334 6.38172 23.3334 7.05827V15.9166C23.3295 16.8939 22.7566 17.7793 21.8667 18.1833C20.2383 18.9316 18.9316 20.2382 18.1834 21.8666C17.7794 22.7565 16.894 23.3294 15.9167 23.3333H7.05835C6.73201 23.3333 6.41916 23.2031 6.18919 22.9715C5.95922 22.74 5.83113 22.4263 5.83335 22.0999V20.6166L1.66669 24.9166C1.69073 24.9409 1.71046 24.969 1.72502 24.9999L5.83335 29.3333V27.8916C5.83335 27.2151 6.38181 26.6666 7.05835 26.6666H15.9167C16.894 26.6704 17.7794 27.2434 18.1834 28.1333C18.9316 29.7617 20.2383 31.0683 21.8667 31.8166C22.7566 32.2205 23.3295 33.106 23.3334 34.0833V42.9416C23.3334 43.2679 23.2032 43.5808 22.9716 43.8108C22.7401 44.0407 22.4264 44.1688 22.1 44.1666H20.6167L24.9167 48.3333C24.9409 48.3092 24.9691 48.2895 25 48.2749L29.3334 44.1666H27.8917C27.2151 44.1666 26.6667 43.6181 26.6667 42.9416V34.0833C26.6705 33.106 27.2434 32.2205 28.1334 31.8166C29.7618 31.0683 31.0684 29.7617 31.8167 28.1333C32.2206 27.2434 33.1061 26.6704 34.0834 26.6666H42.9417C43.6182 26.6666 44.1667 27.2151 44.1667 27.8916ZM23.3334 23.1168C23.3334 23.8168 23.6 23.9751 25.1 24.1668L25.1239 24.1699C26.3348 24.3285 28.3334 24.5902 28.3334 26.8751C28.323 28.2755 27.2311 29.4293 25.8334 29.5168V30.0001C25.8334 30.4603 25.4603 30.8334 25 30.8334C24.5398 30.8334 24.1667 30.4603 24.1667 30.0001V29.5168C23.343 29.4935 22.5497 29.2007 21.9084 28.6834C21.697 28.4721 21.6144 28.164 21.6918 27.8752C21.7692 27.5865 21.9947 27.3609 22.2835 27.2835C22.5722 27.2062 22.8803 27.2887 23.0917 27.5001C23.6752 27.8177 24.3372 27.9623 25 27.9168C25.625 27.9168 26.6667 27.7834 26.6667 26.8751C26.6667 26.1751 26.4 26.0168 24.9 25.8251L24.8979 25.8248C23.6893 25.6748 21.6667 25.4237 21.6667 23.1251C21.7419 21.7562 22.8027 20.6459 24.1667 20.5084V20.0001C24.1667 19.5399 24.5398 19.1668 25 19.1668C25.4603 19.1668 25.8334 19.5399 25.8334 20.0001V20.4918C26.8057 20.6165 27.6788 21.15 28.2334 21.9584C28.4635 22.3611 28.3236 22.8742 27.9209 23.1043C27.5182 23.3344 27.0052 23.1945 26.775 22.7918C26.1084 21.6834 23.3334 21.9168 23.3334 23.1168ZM3.33335 7.86671L1.70835 9.68338C1.43408 9.9827 1.00406 10.0827 0.62586 9.93511C0.247661 9.78752 -0.000957823 9.42268 1.33514e-05 9.01671V1.66671C1.33514e-05 0.746234 0.746205 4.23487e-05 1.66668 4.23487e-05H9.01668C9.40854 0.00615004 9.75936 0.244365 9.90958 0.606341C10.0598 0.968318 9.98074 1.38494 9.70835 1.66671L7.86668 3.33338L17.5 12.9917C18.1462 13.6418 18.1462 14.6916 17.5 15.3417L15.3417 17.5C14.6916 18.1462 13.6417 18.1462 12.9917 17.5L3.33335 7.86671ZM7.25001 1.66671H1.66668V7.25004L2.60835 6.18338C2.79371 5.99087 3.04944 5.8821 3.31668 5.8821C3.58392 5.8821 3.83965 5.99087 4.02501 6.18338L14.1667 16.325L16.325 14.1667L6.19168 4.03338C5.80603 3.64639 5.80603 3.02037 6.19168 2.63338L7.25001 1.66671ZM1.66667 50.0001H9.01667C9.40402 49.9845 9.74603 49.7427 9.89 49.3828C10.034 49.0228 9.95304 48.6119 9.68333 48.3334L7.86667 46.6667L17.5 37.0084C18.1462 36.3583 18.1462 35.3085 17.5 34.6584L15.3417 32.5001C14.6916 31.8538 13.6417 31.8538 12.9917 32.5001L3.33333 42.1334L1.66667 40.2834C1.38122 40.0179 0.966718 39.9443 0.607316 40.0953C0.247914 40.2462 0.0102842 40.5937 0 40.9834V48.3334C0 49.2539 0.746192 50.0001 1.66667 50.0001ZM1.66667 42.7501L2.64167 43.8167C2.82612 44.0015 3.07645 44.1053 3.3375 44.1053C3.59855 44.1053 3.84888 44.0015 4.03333 43.8167L14.1667 33.6751L16.325 35.8334L6.19167 45.9667C6.00233 46.1501 5.89684 46.4032 5.9 46.6667C5.9 47.1755 6.19796 47.4307 6.91001 48.0406C7.01433 48.13 7.12754 48.2269 7.25 48.3334H1.66667V42.7501ZM46.6667 42.1334L48.3334 40.3167C48.6118 40.047 49.0228 39.9661 49.3827 40.1101C49.7427 40.254 49.9844 40.5961 50 40.9834V48.3334C50 49.2539 49.2539 50.0001 48.3334 50.0001H40.9834C40.5915 49.994 40.2407 49.7558 40.0905 49.3938C39.9402 49.0318 40.0193 48.6152 40.2917 48.3334L42.1334 46.6667L32.5 37.0084C31.8538 36.3583 31.8538 35.3085 32.5 34.6584L34.6584 32.5001C35.3084 31.8538 36.3583 31.8538 37.0084 32.5001L46.6667 42.1334ZM42.75 48.3334H48.3334V42.7501L47.3917 43.8167C47.2063 44.0093 46.9506 44.118 46.6834 44.118C46.4161 44.118 46.1604 44.0093 45.975 43.8167L35.8334 33.6751L33.675 35.8334L43.8084 45.9667C44.194 46.3537 44.194 46.9798 43.8084 47.3667L42.75 48.3334Z" fill="white"/>
</svg>
