<svg width="50" height="50" viewBox="0 0 50 50" fill="none" xmlns="http://www.w3.org/2000/svg">
<g clip-path="url(#clip0)">
<rect x="31" y="14" width="18" height="18" rx="9" fill="#B68E6F"/>
<path d="M41.3613 38.1631C40.9568 38.1631 40.6289 38.4909 40.6289 38.8955V47.0713C40.6289 47.8785 39.9722 48.5352 39.165 48.5352H3.14844C2.34121 48.5352 1.68457 47.8784 1.68457 47.0713V23.8682C1.68457 23.4636 1.35664 23.1357 0.952148 23.1357C0.547656 23.1357 0.219727 23.4636 0.219727 23.8682V47.0713C0.219727 48.6862 1.53359 50 3.14844 50H39.165C40.78 50 42.0937 48.6862 42.0937 47.0713V38.8955C42.0937 38.4909 41.7658 38.1631 41.3613 38.1631Z" fill="white"/>
<path d="M16.1752 28.8605C16.5797 28.8605 16.9076 28.5327 16.9076 28.1281V18.9851C16.9076 18.5805 16.5797 18.2527 16.1752 18.2527H14.1786C13.7741 18.2527 13.4462 18.5805 13.4462 18.9851C13.4462 19.3897 13.7741 19.7175 14.1786 19.7175H15.4427V28.1281C15.4427 28.5327 15.7707 28.8605 16.1752 28.8605Z" fill="white"/>
<path d="M26.1928 19.5716C26.1416 18.9576 25.7819 18.4597 25.2767 18.3033C25.0382 18.2295 24.4208 18.1347 23.8394 18.8481C23.3119 19.4954 20.6716 24.2657 20.1476 25.2153C20.0224 25.4421 20.0264 25.7183 20.1581 25.9416C20.2898 26.1646 20.5297 26.3016 20.7888 26.3016H24.7217C24.7169 26.9464 24.7119 27.5661 24.707 28.1216C24.7034 28.5261 25.0284 28.8569 25.4329 28.8605H25.4395C25.841 28.8605 26.1683 28.5369 26.1718 28.1345C26.1738 27.9112 26.1799 27.2119 26.1866 26.3015H26.6547C27.0592 26.3015 27.3871 25.9737 27.3871 25.5691C27.3871 25.1645 27.0592 24.8367 26.6547 24.8367H26.1968C26.2112 22.5615 26.2212 19.9133 26.1928 19.5716ZM24.7317 24.8367H22.0324C23.0104 23.0811 24.2074 20.9702 24.7428 20.1176C24.7513 20.963 24.744 22.8798 24.7317 24.8367Z" fill="white"/>
<path d="M30.8648 45.7871C30.9441 45.8146 31.0248 45.8276 31.1042 45.8276C31.4077 45.8276 31.6916 45.6373 31.7964 45.3343L35.026 35.9933C35.1582 35.611 34.9554 35.1939 34.5731 35.0617C34.1909 34.9293 33.7736 35.1323 33.6415 35.5146L32.0174 40.212L30.3504 35.5092C30.2153 35.128 29.7968 34.9287 29.4153 35.0636C29.0341 35.1987 28.8346 35.6174 28.9697 35.9987L31.25 42.4316L30.4119 44.8556C30.2797 45.2379 30.4825 45.655 30.8648 45.7871Z" fill="white"/>
<path d="M18.0862 38.8857C18.0862 41.0139 19.8176 42.7452 21.9457 42.7452C22.8499 42.7452 23.6817 42.4318 24.3403 41.9091V42.4285C24.3403 42.8331 24.6683 43.1609 25.0728 43.1609C25.4773 43.1609 25.8052 42.8331 25.8052 42.4285V35.3428C25.8052 34.9382 25.4773 34.6104 25.0728 34.6104C24.6683 34.6104 24.3403 34.9382 24.3403 35.3428V35.8622C23.6817 35.3395 22.8499 35.0262 21.9457 35.0262C19.8176 35.0264 18.0862 36.7576 18.0862 38.8857ZM21.9457 36.4912C23.2661 36.4912 24.3403 37.5654 24.3403 38.8858C24.3403 40.2063 23.2661 41.2805 21.9457 41.2805C20.6253 41.2805 19.5511 40.2063 19.5511 38.8858C19.5511 37.5654 20.6253 36.4912 21.9457 36.4912Z" fill="white"/>
<path d="M7.24731 38.886C7.24731 41.017 8.981 42.7507 11.112 42.7507C12.0182 42.7507 12.852 42.4363 13.5118 41.9119V42.0183C13.5118 42.4228 13.8397 42.7507 14.2442 42.7507C14.6487 42.7507 14.9766 42.4228 14.9766 42.0183V32.6772C14.9766 32.2727 14.6487 31.9448 14.2442 31.9448C13.8397 31.9448 13.5118 32.2727 13.5118 32.6772V35.8603C12.852 35.3359 12.0182 35.0215 11.112 35.0215C8.981 35.0215 7.24731 36.7552 7.24731 38.886ZM13.5118 38.886C13.5118 40.2093 12.4352 41.2858 11.112 41.2858C9.78872 41.2858 8.71216 40.2093 8.71216 38.886C8.71216 37.5628 9.78872 36.4863 11.112 36.4863C12.4352 36.4863 13.5118 37.5629 13.5118 38.886Z" fill="white"/>
<path d="M49.7803 23.3525C49.7803 20.7772 48.7998 18.3337 47.0195 16.4724C46.7399 16.1799 46.2763 16.1695 45.984 16.4493C45.6916 16.7288 45.6813 17.1925 45.9609 17.4849C47.4792 19.0725 48.3154 21.1563 48.3154 23.3526C48.3154 28.0353 44.5062 31.8448 39.8242 31.8448C35.1422 31.8448 31.333 28.0353 31.333 23.3526C31.333 18.6706 35.1421 14.8614 39.8242 14.8614C41.0812 14.8614 42.2898 15.1292 43.4167 15.6574C43.7829 15.8289 44.219 15.6714 44.3907 15.3052C44.5624 14.9389 44.4047 14.5027 44.0384 14.3311C43.4103 14.0366 42.7604 13.812 42.0938 13.6563V7.54004C42.0938 5.92578 40.7799 4.6124 39.165 4.6124H37.7016V1.71895C37.7015 0.771094 36.9304 0 35.9826 0H34.4417C33.4939 0 32.7228 0.771094 32.7228 1.71895V4.6123H30.6738V1.71895C30.6738 0.771094 29.9027 0 28.9549 0H27.414C26.4661 0 25.695 0.771094 25.695 1.71895V4.6123H23.646V1.71895C23.6461 0.771094 22.875 0 21.9271 0H20.3862C19.4384 0 18.6673 0.771094 18.6673 1.71895V4.6123H16.6183V1.71895C16.6184 0.771094 15.8473 0 14.8994 0H13.3585C12.4106 0 11.6396 0.771094 11.6396 1.71895V4.6123H9.59062V1.71895C9.59062 0.771094 8.81953 0 7.87168 0H6.33086C5.38301 0 4.61191 0.771094 4.61191 1.71895V4.6123H3.14844C1.53359 4.6123 0.219727 5.92578 0.219727 7.54004V20.4521C0.219727 20.8567 0.547656 21.1846 0.952148 21.1846C1.35664 21.1846 1.68457 20.8567 1.68457 20.4521V14.8613H34.6312C31.7765 16.6137 29.8682 19.7644 29.8682 23.3525C29.8682 28.8429 34.3344 33.3096 39.8242 33.3096C40.0951 33.3096 40.3634 33.2982 40.6289 33.277V35.4775C40.6289 35.8821 40.9568 36.21 41.3613 36.21C41.7658 36.21 42.0938 35.8821 42.0938 35.4775V33.0483C46.4937 32.0185 49.7803 28.0622 49.7803 23.3525ZM34.1877 1.71895C34.1877 1.57881 34.3017 1.46484 34.4418 1.46484H35.9827C36.1229 1.46484 36.2368 1.57881 36.2368 1.71895V8.96982C36.2368 9.10996 36.1229 9.22393 35.9827 9.22393H34.4418C34.3017 9.22393 34.1877 9.10996 34.1877 8.96982V1.71895ZM27.414 1.46484H28.9549C29.095 1.46484 29.209 1.57881 29.209 1.71895V8.96982C29.209 9.10996 29.095 9.22393 28.9549 9.22393H27.414C27.2738 9.22393 27.1599 9.10996 27.1599 8.96982V1.71895C27.16 1.57881 27.2739 1.46484 27.414 1.46484ZM20.1322 1.71895C20.1322 1.57881 20.2462 1.46484 20.3863 1.46484H21.9272C22.0674 1.46484 22.1813 1.57881 22.1813 1.71895V8.96982C22.1813 9.10996 22.0674 9.22393 21.9272 9.22393H20.3863C20.2462 9.22393 20.1322 9.10996 20.1322 8.96982V1.71895ZM13.1045 1.71895C13.1045 1.57881 13.2185 1.46484 13.3586 1.46484H14.8995C15.0396 1.46484 15.1536 1.57881 15.1536 1.71895V8.96982C15.1536 9.10996 15.0396 9.22393 14.8995 9.22393H13.3586C13.2185 9.22393 13.1045 9.10996 13.1045 8.96982V1.71895ZM6.33086 1.46484H7.87178C8.01191 1.46484 8.12588 1.57881 8.12588 1.71895V8.96982C8.12588 9.10996 8.01191 9.22393 7.87178 9.22393H6.33086C6.19072 9.22393 6.07676 9.10996 6.07676 8.96982V1.71895C6.07676 1.57881 6.19072 1.46484 6.33086 1.46484ZM1.68457 13.3965V7.54004C1.68457 6.7334 2.34131 6.07725 3.14844 6.07725H4.61191V8.96982C4.61191 9.91758 5.38301 10.6888 6.33086 10.6888H7.87178C8.81963 10.6888 9.59072 9.91768 9.59072 8.96982V6.07715H11.6397V8.96973C11.6397 9.91748 12.4108 10.6887 13.3587 10.6887H14.8996C15.8475 10.6887 16.6186 9.91758 16.6186 8.96973V6.07715H18.6676V8.96973C18.6676 9.91748 19.4387 10.6887 20.3865 10.6887H21.9274C22.8753 10.6887 23.6464 9.91758 23.6464 8.96973V6.07715H25.6954V8.96973C25.6954 9.91748 26.4665 10.6887 27.4144 10.6887H28.9553C29.9031 10.6887 30.6742 9.91758 30.6742 8.96973V6.07715H32.7232V8.96973C32.7232 9.91748 33.4943 10.6887 34.4422 10.6887H35.9831C36.931 10.6887 37.702 9.91758 37.702 8.96973V6.07715H39.1655C39.9728 6.07715 40.6294 6.7334 40.6294 7.53994V13.3964H1.68457V13.3965Z" fill="white"/>
<path d="M41.6875 19.6159L38.8358 22.4677L37.9606 21.5924C36.9901 20.6218 35.4107 20.6218 34.4403 21.5924C33.97 22.0625 33.7111 22.6877 33.7111 23.3526C33.7111 24.0176 33.9699 24.6427 34.4402 25.1128L37.0755 27.7481C37.5457 28.2182 38.1708 28.4773 38.8357 28.4773C39.5005 28.4773 40.1256 28.2183 40.5958 27.7481L45.2078 23.1362C45.678 22.6661 45.9369 22.0409 45.9369 21.376C45.9369 20.711 45.678 20.0859 45.2078 19.6159C44.7376 19.1457 44.1125 18.8867 43.4476 18.8867C42.7828 18.8868 42.1577 19.1458 41.6875 19.6159ZM44.4723 21.3762C44.4723 21.6499 44.3657 21.9071 44.1722 22.1006L39.5602 26.7125C39.3666 26.906 39.1093 27.0127 38.8358 27.0127C38.5622 27.0127 38.3049 26.906 38.1114 26.7125L35.4759 24.0771C35.2824 23.8837 35.1759 23.6265 35.1759 23.3528C35.1759 23.0791 35.2824 22.8219 35.476 22.6284C35.6757 22.4286 35.938 22.3288 36.2004 22.3288C36.4627 22.3288 36.7251 22.4287 36.9248 22.6283L38.3179 24.0215C38.4552 24.1589 38.6415 24.236 38.8358 24.236C39.03 24.236 39.2163 24.1589 39.3536 24.0216L42.7233 20.6519C42.9167 20.4584 43.174 20.3519 43.4476 20.3519C43.7212 20.3519 43.9785 20.4584 44.172 20.652C44.3657 20.8453 44.4723 21.1025 44.4723 21.3762Z" fill="white"/>
</g>
<defs>
<clipPath id="clip0">
<rect width="50" height="50" fill="white"/>
</clipPath>
</defs>
</svg>
