<svg width="30" height="30" viewBox="0 0 30 30" fill="none" xmlns="http://www.w3.org/2000/svg">
<path d="M29.6936 17.3674C30.6699 9.84033 29.2245 5.08827 26.6172 2.93892L26.6185 2.93767C22.4103 -0.732843 8.19848 -1.27611 3.16392 3.10252C0.902999 5.24438 0.106632 8.38786 0.019359 12.2794C-0.067914 16.1722 -0.171551 23.4646 7.24802 25.4428H7.25484L7.24802 28.4639C7.24802 28.4639 7.19757 29.6878 8.0512 29.9339C9.02757 30.2236 9.46939 29.6554 12.5062 26.3333C17.5844 26.7367 21.4844 25.8125 21.9276 25.6776C22.9531 25.3629 28.7554 24.6598 29.6936 17.3674ZM13.0067 24.2077C13.0067 24.2077 9.79257 27.8782 8.79303 28.8311C8.46575 29.1408 8.10711 29.1121 8.11257 28.4976C8.11257 28.0942 8.13711 23.482 8.13711 23.482C1.84664 21.831 2.21755 15.6215 2.28573 12.3731C2.35391 9.12346 3.00301 6.46206 4.91756 4.66989C9.33439 0.876987 21.794 1.72499 24.9685 4.45758C28.8495 7.60855 27.4681 16.5107 27.4763 16.8142C26.6785 22.9013 21.9767 23.2872 21.1122 23.5507C20.7426 23.6631 17.3131 24.4712 13.0067 24.2077Z" fill="#303D4E"/>
<path d="M14.7852 5.38293C14.2602 5.38293 14.2602 6.13227 14.7852 6.13852C18.8584 6.16724 22.213 8.76745 22.2498 13.537C22.2498 14.0403 23.0543 14.0341 23.0475 13.5307H23.0461C23.0025 8.39153 19.3398 5.41166 14.7852 5.38293Z" fill="#303D4E"/>
<path d="M20.1431 12.7464C20.1308 13.2435 20.934 13.2672 20.9408 12.7639C21.0076 9.93016 19.0999 7.59596 15.5149 7.34993C14.9899 7.31496 14.9353 8.07055 15.459 8.10552C18.5681 8.32157 20.2058 10.2649 20.1431 12.7464Z" fill="#303D4E"/>
<path d="M19.2837 15.97C18.6101 15.6129 17.9242 15.8352 17.6405 16.1861L17.0473 16.8892C16.746 17.2464 16.1828 17.199 16.1828 17.199C12.0728 16.2036 10.9737 12.2646 10.9737 12.2646C10.9737 12.2646 10.9232 11.7313 11.2996 11.4453L12.0414 10.8833C12.4123 10.6135 12.6469 9.96409 12.2691 9.3259C11.26 7.65613 10.5823 7.08038 10.2373 6.63827C9.87458 6.22239 9.32912 6.12872 8.76185 6.40972H8.74958C7.57003 7.04167 6.27866 8.22437 6.69184 9.44205C7.39684 10.7259 8.6923 14.8186 12.8214 17.9108C14.7619 19.3733 17.8328 20.872 19.1364 21.2179L19.1487 21.2354C20.4333 21.6276 21.6824 20.3986 22.3492 19.2859V19.2771C22.6451 18.7389 22.5469 18.2293 22.1146 17.8958C21.3483 17.2115 20.1919 16.4559 19.2837 15.97Z" fill="#303D4E"/>
<path d="M16.0759 10.1376C17.3864 10.2075 18.0218 10.8345 18.09 12.1221C18.1146 12.6254 18.9123 12.5905 18.8878 12.0871C18.8005 10.4061 17.8432 9.46945 16.1196 9.38202C15.5945 9.3533 15.5455 10.1089 16.0759 10.1376Z" fill="#303D4E"/>
</svg>
