<svg width="25" height="25" viewBox="0 0 25 25" fill="none" xmlns="http://www.w3.org/2000/svg">
<path d="M17.9675 25C17.1605 25 16.3603 24.8573 15.5779 24.5731C12.1308 23.3209 8.93123 21.2814 6.32488 18.6751C3.71854 16.0688 1.67907 12.8692 0.426916 9.42217C0.0245383 8.3144 -0.0942072 7.1709 0.0740969 6.02329C0.231757 4.94833 0.648147 3.90477 1.2783 3.00539C1.91123 2.10206 2.75505 1.35073 3.71849 0.832632C4.74589 0.280164 5.86728 0 7.05161 0C7.41996 0 7.73831 0.257363 7.8155 0.617504L9.04172 6.33988C9.09724 6.599 9.0176 6.86861 8.83026 7.05601L6.73498 9.15124C8.71156 13.0811 11.9189 16.2883 15.8487 18.2649L17.9439 16.1696C18.1313 15.9823 18.4009 15.9028 18.6601 15.9582L24.3825 17.1844C24.7426 17.2616 25 17.5799 25 17.9483C25 19.1326 24.7198 20.2541 24.1673 21.2815C23.6492 22.2449 22.8978 23.0887 21.9945 23.7216C21.0952 24.3518 20.0516 24.7682 18.9766 24.9258C18.6397 24.9753 18.3029 25 17.9675 25ZM6.42742 1.59661C4.86522 1.76907 3.47865 2.58788 2.55789 3.90204C1.52248 5.37976 1.28103 7.19731 1.89546 8.88875C4.30279 15.5157 9.48429 20.6972 16.1113 23.1045C17.8027 23.7189 19.6203 23.4776 21.098 22.4421C22.4122 21.5213 23.231 20.1348 23.4034 18.5726L18.7483 17.5751L16.5601 19.7633C16.3272 19.9961 15.9734 20.058 15.6755 19.9179C11.0277 17.7344 7.26557 13.9723 5.08206 9.32452C4.94208 9.02653 5.00389 8.67274 5.23674 8.43994L7.42494 6.25175L6.42742 1.59661Z" fill="#303D4E"/>
<path d="M24.2184 13.2807C23.787 13.2807 23.4372 12.9309 23.4372 12.4995C23.4372 6.46878 18.5308 1.56244 12.5001 1.56244C12.0687 1.56244 11.7189 1.21265 11.7189 0.781218C11.7189 0.34979 12.0687 0 12.5001 0C15.8389 0 18.9778 1.30014 21.3386 3.66098C23.6995 6.02182 24.9996 9.16071 24.9996 12.4995C24.9996 12.9309 24.6499 13.2807 24.2184 13.2807Z" fill="#303D4E"/>
<path d="M21.0935 13.2807C20.6621 13.2807 20.3123 12.9309 20.3123 12.4995C20.3123 8.19187 16.8077 4.68732 12.5001 4.68732C12.0686 4.68732 11.7188 4.33753 11.7188 3.9061C11.7188 3.47467 12.0686 3.12488 12.5001 3.12488C17.6693 3.12488 21.8747 7.33033 21.8747 12.4995C21.8747 12.9309 21.525 13.2807 21.0935 13.2807Z" fill="#303D4E"/>
<path d="M17.9686 13.2809C17.5372 13.2809 17.1874 12.9311 17.1874 12.4996C17.1874 9.91502 15.0847 7.81232 12.5001 7.81232C12.0686 7.81232 11.7188 7.46253 11.7188 7.0311C11.7188 6.59967 12.0686 6.24988 12.5001 6.24988C15.9462 6.24988 18.7498 9.05348 18.7498 12.4996C18.7498 12.9311 18.4001 13.2809 17.9686 13.2809Z" fill="#303D4E"/>
</svg>
