<svg width="50" height="50" viewBox="0 0 50 50" fill="none" xmlns="http://www.w3.org/2000/svg">
<path d="M0.732422 35.6433C1.13701 35.6433 1.46484 35.3143 1.46484 34.9081V32.5344C2.73076 34.0501 4.79414 35.4197 7.56426 36.5511C17.956 40.7955 35.3348 40.4831 44.6193 35.5332C44.9766 35.3427 45.1124 34.8976 44.9227 34.5389C44.7329 34.1803 44.2895 34.0438 43.9322 34.2344C35.2303 38.8737 18.3334 39.3621 8.11611 35.189C3.88916 33.4627 1.46484 31.1564 1.46484 28.8616C1.46484 26.9224 3.18809 24.9678 6.31719 23.358C6.67715 23.1727 6.81943 22.7297 6.63496 22.3682C6.45039 22.0069 6.00898 21.8643 5.64902 22.0492C1.95342 23.9506 0 26.3062 0 28.8616V34.9082C0 35.3143 0.327832 35.6433 0.732422 35.6433Z" fill="white"/>
<path d="M27.8078 13.3947L25.4187 12.0101C25.1603 11.86 24.8396 11.8599 24.5821 12.0096L22.1914 13.3952C21.9342 13.5447 21.7743 13.823 21.7743 14.1214V16.8916C21.7743 17.1899 21.9342 17.4682 22.1922 17.6182L24.5812 19.0028C24.8402 19.1533 25.161 19.1526 25.4178 19.0033L27.8086 17.6177C28.0658 17.4682 28.2257 17.1899 28.2257 16.8916V14.1214C28.2257 13.823 28.0659 13.5447 27.8078 13.3947ZM25.313 17.729C25.3137 17.7295 25.3146 17.7298 25.3153 17.7303C25.3153 17.7303 25.3156 17.7304 25.313 17.729ZM26.7608 16.527L25 17.5475L23.2391 16.527V14.4859L25 13.4654L26.7608 14.4859V16.527Z" fill="white"/>
<path d="M37.7224 19.6617C38.5998 19.1004 38.9118 17.9443 38.4141 17.0412C37.8844 16.0802 36.6759 15.7428 35.7282 16.2918L32.9908 17.8784L30.6671 16.5316V14.4901L32.9908 13.1433L35.7282 14.7299C36.653 15.2659 37.8464 14.9506 38.3882 14.0262C38.9418 13.0815 38.5809 11.8553 37.649 11.3152L36.8972 10.8795L37.6275 10.4561C38.5626 9.91422 38.9071 8.71783 38.3952 7.78906C37.8646 6.82677 36.6554 6.4914 35.7094 7.0399L34.9438 7.4835V6.61512C34.9438 5.53117 34.0839 4.63348 33.027 4.61407C31.9107 4.60153 31.0376 5.49176 31.0376 6.57444V9.74747L28.7174 11.0923L26.9531 10.0695V7.37586L29.6905 5.78939C30.1423 5.52754 30.4655 5.10483 30.6005 4.59888C30.8799 3.55238 30.2623 2.47813 29.2195 2.19756C28.7155 2.06169 28.1891 2.13149 27.7373 2.39343L26.9531 2.84801V2.0013C26.9531 0.917354 26.0932 0.0196672 25.0362 0.000256679C23.9355 -0.0172912 23.0469 0.867161 23.0469 1.96062V2.84801L22.2626 2.39343C21.3278 1.85151 20.1342 2.17257 19.5946 3.11103C19.055 4.0496 19.3745 5.24737 20.3095 5.78929L23.0469 7.37586V10.0696L21.2825 11.0923L18.9623 9.74747V6.61502C18.9623 5.53107 18.1023 4.63339 17.0454 4.61398C15.9292 4.60143 15.0561 5.49166 15.0561 6.57434V7.4834L14.2906 7.0398C13.3431 6.49062 12.1347 6.82775 11.6048 7.78887C11.0929 8.71763 11.4372 9.91412 12.3724 10.456L13.1028 10.8794L12.351 11.3151C11.4186 11.8556 11.0582 13.0823 11.6121 14.0265C12.1536 14.9504 13.3465 15.2659 14.2717 14.7298L17.0091 13.1432L19.3328 14.49V16.5315L17.0091 17.8783L14.3067 16.3121C13.3718 15.7702 12.1674 16.0689 11.6222 16.978C11.0625 17.9108 11.3688 19.1062 12.2758 19.6621C11.1082 19.9508 9.99746 20.2794 8.95732 20.6442C8.57549 20.7781 8.37402 21.1975 8.50752 21.5808C8.64082 21.9638 9.0585 22.1665 9.44053 22.0324C10.1318 21.7899 10.8566 21.564 11.6104 21.3556C11.2961 21.9402 11.273 22.6682 11.6309 23.2785C12.1724 24.2023 13.3652 24.5179 14.2904 23.9817L15.056 23.5381V24.4065C15.056 25.4905 15.9159 26.3882 16.9729 26.4076C18.0731 26.4263 18.9622 25.5403 18.9622 24.4472V21.2742L21.2899 19.925L23.0469 20.9435V23.6372L20.3095 25.2237C19.3746 25.7655 19.0549 26.9636 19.5946 27.902C20.133 28.8381 21.3296 29.1602 22.2626 28.6196L23.0469 28.165V29.0116C23.0469 30.0956 23.9068 30.9932 24.9638 31.0127C26.0785 31.03 26.9531 30.1318 26.9531 29.0523V28.165L27.7374 28.6196C28.6713 29.1608 29.867 28.8379 30.4054 27.902C30.9451 26.9634 30.6254 25.7655 29.6905 25.2237L26.9531 23.6372V20.9435L28.71 19.9252L31.0377 21.2744V24.4067C31.0377 25.4907 31.8977 26.3883 32.9546 26.4078C34.0427 26.4264 34.9439 25.5515 34.9439 24.4474V23.5383L35.7095 23.9819C36.6344 24.5181 37.8276 24.2026 38.3694 23.2783C38.7216 22.6773 38.7093 21.9492 38.3889 21.3545C44.6386 23.0771 48.5352 25.9041 48.5352 28.8615C48.5352 30.067 47.8943 31.2566 46.6307 32.397C46.3298 32.6684 46.3052 33.1333 46.5757 33.4352C46.8451 33.7364 47.3082 33.7628 47.61 33.4904C47.9556 33.1785 48.2641 32.8606 48.5353 32.5372V39.3509C48.5353 41.6457 46.1109 43.9521 41.8839 45.6785C32.5764 49.4801 17.4242 49.4802 8.11641 45.6785C3.88916 43.9521 1.46484 41.6458 1.46484 39.351V38.3392C1.46484 37.9331 1.13701 37.604 0.732422 37.604C0.327832 37.604 0 37.9331 0 38.3392V39.351C0 42.3175 2.68633 45.0484 7.56416 47.0406C17.2236 50.9859 32.7736 50.987 42.4358 47.0406C47.3137 45.0484 50 42.3174 50 39.351V28.8615C50 23.7894 42.6294 20.8745 37.7224 19.6617ZM37.1069 22.5327C36.9715 22.7637 36.6733 22.8423 36.4419 22.7085L34.7332 21.7182C34.4753 21.5687 34.1551 21.5685 33.8972 21.7178C33.6393 21.8671 33.4791 22.1456 33.4791 22.4445V24.4474C33.4791 24.7305 33.2413 24.9476 32.9813 24.9375C32.7218 24.9327 32.5025 24.6896 32.5025 24.4067V20.9098C32.5025 20.6106 32.3422 20.3321 32.0847 20.1832L29.128 18.4695C28.8701 18.3202 28.5498 18.3201 28.2921 18.4695L25.9054 19.8528C25.6481 20.0023 25.4883 20.2806 25.4883 20.5789V24.0016C25.4883 24.3 25.6481 24.5783 25.9062 24.7283L28.9581 26.4971C29.1917 26.6324 29.2719 26.9318 29.1368 27.1665C29.0045 27.3965 28.7074 27.4839 28.4698 27.346L26.7417 26.3444C26.4838 26.1952 26.1637 26.1953 25.906 26.3447C25.6482 26.4941 25.4883 26.7726 25.4883 27.0713V29.0523C25.4883 29.331 25.2576 29.5499 24.9905 29.5424C24.731 29.5376 24.5117 29.2945 24.5117 29.0116V27.0713C24.5117 26.7726 24.3517 26.4942 24.094 26.3448C23.8363 26.1953 23.5161 26.1954 23.258 26.3447L21.5303 27.3461C21.2971 27.4811 20.9978 27.4008 20.8632 27.1667C20.7283 26.9321 20.808 26.6326 21.0419 26.4972L24.0947 24.7279C24.352 24.5784 24.5118 24.3001 24.5118 24.0017V20.579C24.5118 20.2807 24.352 20.0024 24.0939 19.8524L21.708 18.4696C21.4501 18.3203 21.1298 18.3202 20.8721 18.4696L17.9159 20.183C17.6577 20.3323 17.4975 20.6108 17.4975 20.91V24.4476C17.4975 24.7338 17.2565 24.9478 16.9997 24.9377C16.7401 24.9329 16.5209 24.6898 16.5209 24.4069V22.4447C16.5209 22.1458 16.3606 21.8673 16.1028 21.718C15.8451 21.5687 15.5247 21.5687 15.2672 21.7182L13.5581 22.7087C13.3269 22.8427 13.0287 22.7639 12.8933 22.533C12.7572 22.301 12.8672 21.9772 13.1022 21.8409L14.7797 20.8687C15.0372 20.7191 15.197 20.4406 15.1968 20.1419C15.1966 19.8432 15.0362 19.565 14.7789 19.416C14.6687 19.352 13.3729 18.601 13.0512 18.4146C12.8158 18.2781 12.735 17.974 12.8773 17.7368C13.0113 17.5136 13.3308 17.4446 13.5746 17.586L16.592 19.3348C16.849 19.4835 17.1685 19.4835 17.4272 19.3344L20.3809 17.6225C20.6381 17.473 20.7979 17.1947 20.7979 16.8964V14.1257C20.7979 13.8274 20.6381 13.5491 20.3801 13.3991L17.4259 11.6869C17.1689 11.5387 16.8494 11.5387 16.5915 11.6877L13.5396 13.4565C13.3086 13.5905 13.0103 13.5117 12.8747 13.2809C12.7387 13.0488 12.8486 12.725 13.0837 12.5888L14.7787 11.6064C15.3349 11.2842 15.3358 10.4765 14.7791 10.1529L13.105 9.1828C12.8609 9.04134 12.7609 8.7292 12.8867 8.50108C13.0196 8.26011 13.3213 8.17639 13.5583 8.31354L15.267 9.30387C15.8228 9.62649 16.5211 9.22279 16.5211 8.57754V6.57434C16.5211 6.30053 16.7447 6.0782 17.0188 6.08427C17.2784 6.08908 17.4977 6.3321 17.4977 6.61502V10.112C17.4977 10.4111 17.658 10.6897 17.9155 10.8386L20.8653 12.5483C21.1224 12.6969 21.4418 12.6971 21.7006 12.5479L24.0949 11.1602C24.3521 11.0107 24.512 10.7324 24.512 10.4341V7.01127C24.512 6.71296 24.3521 6.43464 24.0941 6.28465L21.0422 4.51594C20.9292 4.45046 20.8484 4.34478 20.8146 4.21841C20.745 3.95745 20.8987 3.68825 21.1599 3.61796C21.286 3.58404 21.4175 3.60159 21.5305 3.66698L23.2586 4.66858C23.5165 4.81779 23.8366 4.81769 24.0943 4.66829C24.3521 4.51888 24.5117 4.24037 24.5117 3.94167V1.96062C24.5117 1.6777 24.7488 1.46036 25.0095 1.47055C25.269 1.47536 25.4883 1.71838 25.4883 2.0013V3.94167C25.4883 4.24037 25.6483 4.51879 25.906 4.66819C26.1638 4.81759 26.484 4.81759 26.742 4.66829L28.47 3.66678C28.7035 3.5313 29.0019 3.61169 29.1368 3.84628C29.2718 4.08097 29.192 4.38036 28.9581 4.51585L25.9053 6.28504C25.6481 6.43464 25.4883 6.71296 25.4883 7.01127V10.4341C25.4883 10.7324 25.6481 11.0107 25.9062 11.1607L28.301 12.5488C28.5583 12.697 28.8776 12.6968 29.1354 12.5479L32.084 10.8389C32.3422 10.6896 32.5024 10.4111 32.5024 10.1119V6.57434C32.5024 6.30269 32.7242 6.0782 33.0002 6.08427C33.2598 6.08908 33.479 6.3321 33.479 6.61502V8.57725C33.479 8.87615 33.6393 9.15466 33.8971 9.30397C34.1549 9.45327 34.4752 9.45327 34.7327 9.30377L36.4419 8.31325C36.6772 8.17688 36.9799 8.25864 37.1135 8.50098C37.2392 8.729 37.1392 9.04114 36.8951 9.1826L35.2203 10.1532C34.9628 10.3028 34.803 10.5813 34.8032 10.88C34.8034 11.1787 34.9638 11.457 35.2211 11.606L36.9165 12.5886C37.1521 12.7252 37.2609 13.0492 37.1256 13.2806C36.9901 13.5114 36.6919 13.5905 36.4605 13.4563L33.4082 11.6871C33.1512 11.5384 32.8317 11.5384 32.5729 11.6875L29.6193 13.3994C29.3621 13.5489 29.2022 13.8272 29.2022 14.1255V16.8962C29.2022 17.1945 29.3621 17.4728 29.6201 17.6228L32.5743 19.3351C32.8316 19.4833 33.151 19.4831 33.4087 19.3342L36.4606 17.5654C36.6955 17.4292 36.9984 17.5103 37.1323 17.7531C37.258 17.981 37.1581 18.2932 36.9141 18.4345L35.2215 19.4156C34.9638 19.5648 34.8035 19.843 34.8033 20.1417C34.803 20.4404 34.9629 20.7189 35.2211 20.869L36.8979 21.8407C37.1334 21.9774 37.2423 22.3015 37.1069 22.5327Z" fill="white"/>
</svg>
