<?xml version="1.0" encoding="UTF-8"?> <svg xmlns="http://www.w3.org/2000/svg" height="512px" viewBox="-59 0 512 512" width="512px"> <g> <path d="m383.210938 265.097656c6.417968-7.492187 10.296874-17.214844 10.296874-27.828125 0-23.617187-19.210937-42.828125-42.828124-42.828125h-3.617188v-22.605468c28.683594-17.878907 46.136719-48.996094 46.136719-83.292969 0-38.132813-21.660157-72.230469-55.675781-88.542969l-26.351563 18.085938v47.675781l-16.390625 10.929687-16.039062-10.242187v-48.363281l-26.351563-18.085938c-34.019531 16.3125-55.675781 50.410156-55.675781 88.542969 0 16.175781 3.886718 31.644531 11 45.347656l-64.933594 88.378906h-23.789062v-18.554687h-118.992188v234.078125h118.992188v-18.554688h32.628906l18.554687 27.828125h72.675781v12.828125c0 28.730469 23.375 52.105469 52.105469 52.105469s52.101563-23.375 52.101563-52.105469v-12.828125h3.621094c23.613281 0 42.828124-19.210937 42.828124-42.828125 0-10.613281-3.882812-20.335937-10.300781-27.828125 6.417969-7.488281 10.300781-17.214844 10.300781-27.828125s-3.882812-20.339843-10.300781-27.828125c6.417969-7.492187 10.300781-17.214844 10.300781-27.828125s-3.878906-20.339843-10.296874-27.828125zm-32.53125 151.96875h-164.449219l-18.550781-27.828125h-48.6875v-136.96875h38.972656l68.5-93.234375c3.933594 3.804688 8.207031 7.300782 12.800781 10.445313 1.175781.804687 2.367187 1.597656 3.585937 2.355469v22.605468h-20.765624v30h128.59375c7.074218 0 12.828124 5.753906 12.828124 12.828125s-5.753906 12.828125-12.828124 12.828125h-51.886719v30h51.886719c7.074218 0 12.828124 5.753906 12.828124 12.828125s-5.753906 12.828125-12.828124 12.828125h-51.886719v30h51.886719c7.074218 0 12.828124 5.753906 12.828124 12.828125s-5.753906 12.828125-12.828124 12.828125h-51.886719v30h51.886719c7.074218 0 12.828124 5.753906 12.828124 12.828125s-5.753906 12.828125-12.828124 12.828125zm-55.722657 64.933594c-12.191406 0-22.105469-9.917969-22.105469-22.105469v-12.828125h44.210938v12.828125c0 12.1875-9.917969 22.105469-22.105469 22.105469zm-264.957031-74.210938v-174.074218h58.992188v174.074218zm196.714844-319.246093c0-19.570313 8.207031-37.617188 22.023437-50.277344v44.625l46.394531 29.621094 46.039063-30.691407v-43.554687c13.816406 12.660156 22.023437 30.707031 22.023437 50.277344 0 26.042969-14.496093 49.449219-37.832031 61.09375l-8.304687 4.140625v40.660156h-44.207032v-40.660156l-8.304687-4.140625c-23.335937-11.644531-37.832031-35.050781-37.832031-61.09375zm0 0" data-original="#000000" class="active-path" data-old_color="#000000" fill="#FFFFFF"></path> </g> </svg> 