<svg width="7" height="12" viewBox="0 0 7 12" fill="none" xmlns="http://www.w3.org/2000/svg">
<path d="M0.19006 6.42243L5.49242 11.7247C5.61505 11.8474 5.77876 11.915 5.95332 11.915C6.12788 11.915 6.29159 11.8474 6.41423 11.7247L6.80471 11.3343C7.0588 11.0799 7.0588 10.6665 6.80471 10.4125L2.35219 5.95997L6.80965 1.50252C6.93229 1.37978 7 1.21617 7 1.04171C7 0.867051 6.93229 0.703437 6.80965 0.580607L6.41917 0.190319C6.29644 0.0675848 6.13282 -2.98954e-05 5.95826 -2.98954e-05C5.7837 -2.98954e-05 5.61999 0.0675848 5.49736 0.190319L0.19006 5.49742C0.0671322 5.62054 -0.000385816 5.78493 1.66288e-06 5.95968C-0.000385816 6.13512 0.0671322 6.29941 0.19006 6.42243Z" fill="white"/>
</svg>
