<?xml version="1.0" encoding="UTF-8"?> <svg xmlns="http://www.w3.org/2000/svg" xmlns:xlink="http://www.w3.org/1999/xlink" id="Capa_1" x="0px" y="0px" viewBox="0 0 512.05 512.05" style="enable-background:new 0 0 512.05 512.05;" xml:space="preserve" width="512px" height="512px" class=""><g><g> <g> <g> <path d="M506.759,0.687c-3.195-1.315-6.867-0.573-9.301,1.877L307.25,192.773L168.242,53.679 c-31.987-31.259-83.258-30.67-114.517,1.317c-30.752,31.468-30.752,81.733,0,113.2l139.093,139.008L2.524,497.413 c-3.346,3.319-3.368,8.722-0.05,12.068c1.614,1.628,3.816,2.538,6.108,2.524h494.933c4.713,0,8.533-3.821,8.533-8.533V8.538 C512.032,5.093,509.946,1.996,506.759,0.687z M29.148,494.938l56.235-56.235l19.541,19.541c3.58,3.065,8.966,2.649,12.032-0.931 c2.736-3.195,2.736-7.906,0-11.101l-19.541-19.541l13.568-13.568l19.541,19.541c3.58,3.065,8.966,2.649,12.032-0.931 c2.736-3.195,2.736-7.906,0-11.101l-19.541-19.541l13.568-13.568l19.541,19.541c3.58,3.065,8.966,2.649,12.032-0.931 c2.736-3.195,2.736-7.906,0-11.101l-19.541-19.541l13.568-13.568l19.541,19.541c3.58,3.065,8.966,2.649,12.032-0.931 c2.736-3.195,2.736-7.906,0-11.101l-19.541-19.541l30.635-30.635l39.168,39.168l-62.208,62.208 c-3.346,3.319-3.368,8.722-0.05,12.068c1.594,1.607,3.76,2.515,6.023,2.524h133.035l59.733,59.733H29.148z M256.05,370.437 l47.701,47.701h-95.403L256.05,370.437z M330.375,420.698l-68.267-68.267l-51.2-51.2L65.842,156.165 c-12.022-11.973-18.752-28.26-18.688-45.227c0.105-35.299,28.806-63.829,64.105-63.723c16.817,0.05,32.937,6.727,44.865,18.582 l53.76,53.675l-28.075,28.075c-3.58,3.065-3.996,8.452-0.931,12.032c3.065,3.58,8.452,3.996,12.032,0.931 c0.334-0.286,0.645-0.597,0.931-0.931l28.075-28.075l13.568,13.568l-28.075,28.075c-3.58,3.065-3.996,8.452-0.931,12.032 c3.065,3.58,8.452,3.996,12.032,0.931c0.334-0.286,0.645-0.597,0.931-0.931l28.075-28.075l13.568,13.568l-28.075,28.075 c-3.58,3.065-3.996,8.452-0.931,12.032c3.065,3.58,8.452,3.996,12.032,0.931c0.334-0.286,0.645-0.597,0.931-0.931l28.075-28.075 l13.568,13.568l-28.075,28.075c-3.58,3.065-3.996,8.452-0.931,12.032s8.452,3.996,12.032,0.931 c0.334-0.286,0.645-0.597,0.931-0.931l28.075-28.075l2.475,2.475l11.093,11.093l-28.075,28.075 c-3.58,3.065-3.996,8.452-0.931,12.032c3.065,3.58,8.452,3.996,12.032,0.931c0.334-0.286,0.645-0.597,0.931-0.931l28.075-28.075 l13.568,13.568l-28.075,28.075c-3.58,3.065-3.996,8.452-0.931,12.032s8.452,3.996,12.032,0.931 c0.334-0.286,0.645-0.597,0.931-0.931l28.075-28.075l2.475,2.475l11.093,11.093l-28.075,28.075 c-3.58,3.065-3.996,8.452-0.931,12.032s8.452,3.996,12.032,0.931c0.334-0.286,0.645-0.597,0.931-0.931l28.075-28.075 l13.568,13.568l-28.075,28.075c-3.58,3.065-3.996,8.452-0.931,12.032s8.452,3.996,12.032,0.931 c0.334-0.286,0.645-0.597,0.931-0.931l28.075-28.075l13.568,13.568l-28.075,28.075c-3.58,3.065-3.996,8.452-0.931,12.032 c3.065,3.58,8.452,3.996,12.032,0.931c0.334-0.286,0.645-0.597,0.931-0.931l28.075-28.075l13.568,13.568l-28.075,28.075 c-3.58,3.065-3.996,8.452-0.931,12.032s8.452,3.996,12.032,0.931c0.334-0.286,0.645-0.597,0.931-0.931l28.075-28.075 l13.568,13.568l-28.075,28.075c-3.58,3.065-3.996,8.452-0.931,12.032s8.452,3.996,12.032,0.931 c0.334-0.286,0.645-0.597,0.931-0.931l28.075-28.075l13.568,13.568l-90.368,90.368L330.375,420.698z M370.482,256.005 l47.701-47.701v95.403L370.482,256.005z M494.983,494.938h-73.301l73.301-73.301V494.938z M494.983,380.506l-59.733-59.733 V187.738c0.027-4.713-3.771-8.555-8.484-8.583c-2.293-0.013-4.494,0.896-6.108,2.524l-62.208,62.293l-39.168-39.168 l22.101-22.101l19.541,19.541c3.58,3.065,8.966,2.649,12.032-0.931c2.736-3.195,2.736-7.906,0-11.101l-19.541-19.541 l13.568-13.568l19.541,19.541c3.58,3.065,8.967,2.649,12.032-0.931c2.736-3.195,2.736-7.906,0-11.101l-19.541-19.541 l13.568-13.568l19.541,19.541c3.58,3.065,8.966,2.649,12.032-0.931c2.736-3.195,2.736-7.906,0-11.101l-19.541-19.541 l13.568-13.568l19.541,19.541c3.58,3.065,8.966,2.649,12.032-0.931c2.736-3.195,2.736-7.906,0-11.101l-19.541-19.541 l13.568-13.568l19.541,19.541c3.58,3.065,8.966,2.649,12.032-0.931c2.736-3.195,2.736-7.906,0-11.101l-19.541-19.541 l39.168-39.168V380.506z" data-original="#000000" class="active-path" data-old_color="#000000" fill="#FFFFFF"></path> <path d="M115.25,76.805c-21.208,0-38.4,17.192-38.4,38.4c0,21.208,17.192,38.4,38.4,38.4c21.208,0,38.4-17.192,38.4-38.4 C153.65,93.997,136.457,76.805,115.25,76.805z M115.25,136.538c-11.782,0-21.333-9.551-21.333-21.333 c0-11.782,9.551-21.333,21.333-21.333c11.782,0,21.333,9.551,21.333,21.333C136.583,126.987,127.032,136.538,115.25,136.538z" data-original="#000000" class="active-path" data-old_color="#000000" fill="#FFFFFF"></path> </g> </g> </g></g> </svg> 