<svg width="21" height="21" viewBox="0 0 21 21" fill="none" xmlns="http://www.w3.org/2000/svg">
<path d="M20.6757 0.574927C20.4192 0.204141 20.035 0 19.5938 0C19.3539 0 19.0998 0.0596516 18.8387 0.177629L1.06259 8.19802C0.119234 8.62353 -0.00781766 9.26209 0.000353393 9.60485C0.00852444 9.94761 0.166018 10.5767 1.12828 10.9386C1.13405 10.9407 1.13982 10.9427 1.14558 10.9446L4.83282 12.1918L6.82688 18.9315C7.09876 19.8503 7.70903 20.4211 8.41975 20.4211C8.86788 20.4211 9.30864 20.1992 9.69444 19.7795L11.9751 17.2974L15.2831 20.4457C15.2834 20.4461 15.2839 20.4463 15.2842 20.4467L15.3156 20.4766C15.3185 20.4792 15.3216 20.4821 15.3245 20.4847C15.6922 20.8218 16.0935 20.9998 16.4856 21H16.4857C17.2517 21 17.8617 20.3298 18.0393 19.2928L20.9519 2.29422C21.0689 1.61192 20.9708 1.00139 20.6757 0.574927V0.574927ZM6.06633 11.9549L13.1801 7.65945L8.7506 13.2226C8.67802 13.3137 8.62659 13.4252 8.60128 13.5466L7.74716 17.6358L6.06633 11.9549ZM8.86083 18.7096C8.83135 18.7416 8.80171 18.7702 8.77207 18.7965L9.5645 15.003L11.006 16.375L8.86083 18.7096ZM19.746 2.00543L16.8334 19.0042C16.8053 19.1669 16.7158 19.5454 16.4856 19.5454C16.3718 19.5454 16.2289 19.4722 16.0826 19.339L12.3342 15.7717C12.3337 15.7711 12.333 15.7705 12.3324 15.7702L10.102 13.6473L16.5077 5.60232C16.7127 5.34478 16.7313 4.95032 16.5517 4.6674C16.372 4.38448 16.0462 4.29548 15.7798 4.45644L5.24425 10.8181L1.50687 9.55429L19.2775 1.53636C19.4276 1.46856 19.5324 1.45436 19.5938 1.45436C19.6314 1.45436 19.6984 1.45966 19.7232 1.49583C19.7559 1.54299 19.7976 1.70376 19.746 2.00543V2.00543Z" fill="white"/>
</svg>
