<svg width="30" height="30" viewBox="0 0 30 30" fill="none" xmlns="http://www.w3.org/2000/svg">
<rect width="30" height="30" fill="white"/>
<path d="M15 30C23.2712 30 30 23.2712 30 15C30 6.72875 23.2712 0 15 0C6.72875 0 0 6.72875 0 15C0 23.2712 6.72875 30 15 30ZM15 1.875C22.2375 1.875 28.125 7.7625 28.125 15C28.125 22.2375 22.2375 28.125 15 28.125C7.7625 28.125 1.875 22.2375 1.875 15C1.875 7.7625 7.7625 1.875 15 1.875Z" fill="#303D4E"/>
<path d="M9.87002 17.6938L11.83 16.8425L11.28 17.3938C11.1038 17.57 11.005 17.8088 11.005 18.0563V21.725C11.005 22.565 12.02 22.9725 12.605 22.3875L14.5725 20.42L18.86 22.5638C19.415 22.8413 20.0863 22.5125 20.2013 21.8925L22.6475 8.44126C22.7763 7.71751 22.0638 7.13251 21.3825 7.40001L5.48752 13.6213C4.77502 13.8988 4.68002 14.8738 5.32502 15.285L8.99252 17.625C9.25502 17.7925 9.58627 17.8188 9.87002 17.6938ZM20.5025 9.76001L18.5813 20.3288L14.8063 18.4425C14.4413 18.26 14.0063 18.3363 13.725 18.6188L12.88 19.4638V18.4475L16.6388 14.6888C17.3675 13.96 16.5475 12.7575 15.6025 13.1663L9.58127 15.7788L7.88877 14.6988L20.5025 9.76001Z" fill="#303D4E"/>
</svg>
