<svg width="50" height="50" viewBox="0 0 50 50" fill="none" xmlns="http://www.w3.org/2000/svg">
<g clip-path="url(#clip0)">
<rect x="28" y="29" width="19" height="20" rx="9.5" fill="#B68E6F"/>
<path d="M24.1667 18.3333H15.8334V19.9999H24.1667V18.3333Z" fill="white"/>
<path d="M30.8334 22.5H15.8334V24.1667H30.8334V22.5Z" fill="white"/>
<path d="M30.8333 26.6667H7.5V28.3334H30.8333V26.6667Z" fill="white"/>
<path d="M30.8334 18.3333H25.8334V19.9999H30.8334V18.3333Z" fill="white"/>
<path d="M25 30.8333H7.5V32.4999H25V30.8333Z" fill="white"/>
<path d="M25 35H7.5V36.6667H25V35Z" fill="white"/>
<path d="M12.5 39.1667H7.5V40.8334H12.5V39.1667Z" fill="white"/>
<path d="M25 39.1667H14.1667V40.8334H25V39.1667Z" fill="white"/>
<path d="M13.3333 18.3333H7.5V19.9999H13.3333V18.3333Z" fill="white"/>
<path d="M14.1667 22.5H7.5V24.1667H14.1667V22.5Z" fill="white"/>
<path d="M37.5 28.3333C37.2184 28.3333 36.9425 28.3542 36.6667 28.3758V0.833333C36.6667 0.373125 36.2936 0 35.8334 0H2.50002C2.03981 0 1.66669 0.373125 1.66669 0.833333V49.1667C1.66669 49.6269 2.03981 50 2.50002 50H37.5C43.4832 50 48.3334 45.1498 48.3334 39.1667C48.3334 33.1835 43.4832 28.3333 37.5 28.3333ZM3.33335 48.3333V1.66667H35V28.6358C29.1869 30.0042 25.5837 35.8259 26.952 41.6391C27.6056 44.416 29.3302 46.8222 31.75 48.3333H3.33335ZM37.5 48.3333C32.4374 48.3333 28.3334 44.2293 28.3334 39.1667C28.3334 34.1041 32.4374 30 37.5 30C42.5626 30 46.6667 34.1041 46.6667 39.1667C46.6608 44.2268 42.5601 48.3274 37.5 48.3333Z" fill="white"/>
<path d="M15.5899 15.5889L25.5901 5.58862L24.4116 4.41012L14.4114 14.4104L15.5899 15.5889Z" fill="white"/>
<path d="M16.6667 9.1665C18.0474 9.1665 19.1667 8.04723 19.1667 6.6665C19.1667 5.28577 18.0474 4.1665 16.6667 4.1665C15.286 4.1665 14.1667 5.28577 14.1667 6.6665C14.1667 8.04723 15.286 9.1665 16.6667 9.1665ZM16.6667 5.83317C17.1269 5.83317 17.5 6.2063 17.5 6.6665C17.5 7.12671 17.1269 7.49984 16.6667 7.49984C16.2065 7.49984 15.8334 7.12671 15.8334 6.6665C15.8334 6.2063 16.2065 5.83317 16.6667 5.83317Z" fill="white"/>
<path d="M23.3334 10.8333C21.9526 10.8333 20.8334 11.9525 20.8334 13.3332C20.8334 14.714 21.9526 15.8332 23.3334 15.8332C24.7141 15.8332 25.8334 14.714 25.8334 13.3332C25.8334 11.9525 24.7141 10.8333 23.3334 10.8333ZM23.3334 14.1666C22.8732 14.1666 22.5 13.7935 22.5 13.3332C22.5 12.873 22.8732 12.4999 23.3334 12.4999C23.7936 12.4999 24.1667 12.873 24.1667 13.3332C24.1667 13.7935 23.7936 14.1666 23.3334 14.1666Z" fill="white"/>
<path d="M43.0892 35.2441L41.4225 33.5775C41.0971 33.2522 40.5696 33.2522 40.2442 33.5775L37.5 36.3216L34.7559 33.5775C34.4304 33.2522 33.9029 33.2522 33.5775 33.5775L31.9109 35.2441C31.5855 35.5696 31.5855 36.0971 31.9109 36.4225L34.655 39.1667L31.9109 41.9108C31.5855 42.2362 31.5855 42.7637 31.9109 43.0892L33.5775 44.7558C33.9029 45.0811 34.4304 45.0811 34.7559 44.7558L37.5 42.0117L40.2442 44.7558C40.5696 45.0811 41.0971 45.0811 41.4225 44.7558L43.0892 43.0892C43.4145 42.7637 43.4145 42.2362 43.0892 41.9108L40.345 39.1667L43.0892 36.4225C43.4145 36.0971 43.4145 35.5696 43.0892 35.2441ZM38.5775 38.5775C38.2522 38.9029 38.2522 39.4304 38.5775 39.7558L41.3217 42.5L40.8334 42.9883L38.0892 40.2442C37.7638 39.9188 37.2363 39.9188 36.9109 40.2442L34.1667 42.9883L33.6784 42.5L36.4225 39.7558C36.7478 39.4304 36.7478 38.9029 36.4225 38.5775L33.6784 35.8333L34.1667 35.345L36.9109 38.0892C37.2363 38.4145 37.7638 38.4145 38.0892 38.0892L40.8334 35.345L41.3217 35.8333L38.5775 38.5775Z" fill="white"/>
</g>
<defs>
<clipPath id="clip0">
<rect width="50" height="50" fill="white"/>
</clipPath>
</defs>
</svg>
